<svg width="1680" height="296" viewBox="0 0 1680 296" fill="none" xmlns="http://www.w3.org/2000/svg">
<path d="M66.4261 291V293H67.8787L68.328 291.619L66.4261 291ZM0.517046 291L-1.37347 290.347L-2.2892 293H0.517046V291ZM100.943 0.0908966V-1.9091H99.5178L99.0527 -0.561737L100.943 0.0908966ZM180.205 0.0908966L182.095 -0.560913L181.631 -1.9091H180.205V0.0908966ZM280.489 291V293H283.294L282.379 290.348L280.489 291ZM214.58 291L212.677 291.618L213.126 293H214.58V291ZM141.71 66.5682L143.612 65.9505L143.164 64.5682H141.71V66.5682ZM139.438 66.5682V64.5682H137.985L137.536 65.9495L139.438 66.5682ZM62.3068 176.653V174.653H60.3068V176.653H62.3068ZM217.989 176.653H219.989V174.653H217.989V176.653ZM217.989 224.665V226.665H219.989V224.665H217.989ZM62.3068 224.665H60.3068V226.665H62.3068V224.665ZM66.4261 289H0.517046V293H66.4261V289ZM2.40757 291.653L102.834 0.743538L99.0527 -0.561737L-1.37347 290.347L2.40757 291.653ZM100.943 2.0909H180.205V-1.9091H100.943V2.0909ZM178.314 0.742714L278.598 291.652L282.379 290.348L182.095 -0.560913L178.314 0.742714ZM280.489 289H214.58V293H280.489V289ZM216.482 290.382L143.612 65.9505L139.808 67.1858L212.677 291.618L216.482 290.382ZM141.71 64.5682H139.438V68.5682H141.71V64.5682ZM137.536 65.9495L64.5242 290.381L68.328 291.619L141.339 67.1869L137.536 65.9495ZM62.3068 178.653H217.989V174.653H62.3068V178.653ZM215.989 176.653V224.665H219.989V176.653H215.989ZM217.989 222.665H62.3068V226.665H217.989V222.665ZM64.3068 224.665V176.653H60.3068V224.665H64.3068ZM495.19 0.0908966V-1.9091H493.19V0.0908966H495.19ZM556.696 0.0908966H558.696V-1.9091H556.696V0.0908966ZM541.497 244.693L539.81 243.619L539.806 243.626L541.497 244.693ZM499.31 281.909L500.185 283.707L500.193 283.704L499.31 281.909ZM372.747 281.909L371.864 283.704L371.872 283.707L372.747 281.909ZM330.56 244.693L328.868 245.76L330.56 244.693ZM315.503 0.0908966V-1.9091H313.503V0.0908966H315.503ZM377.009 0.0908966H379.009V-1.9091H377.009V0.0908966ZM384.253 213.301L382.508 214.279L382.512 214.286L382.516 214.293L384.253 213.301ZM404.991 233.614L404.023 235.364L404.991 233.614ZM467.207 233.614L466.239 231.864L466.231 231.868L467.207 233.614ZM487.804 213.301L486.068 212.309L486.063 212.316L486.059 212.323L487.804 213.301ZM495.19 2.0909H556.696V-1.9091H495.19V2.0909ZM554.696 0.0908966V189.011H558.696V0.0908966H554.696ZM554.696 189.011C554.696 209.892 549.714 228.07 539.81 243.619L543.184 245.768C553.546 229.499 558.696 210.555 558.696 189.011H554.696ZM539.806 243.626C529.979 259.2 516.207 271.364 498.427 280.115L500.193 283.704C518.587 274.651 532.939 262.004 543.189 245.76L539.806 243.626ZM498.434 280.111C480.668 288.761 459.908 293.119 436.099 293.119V297.119C460.397 297.119 481.777 292.67 500.185 283.707L498.434 280.111ZM436.099 293.119C412.195 293.119 391.388 288.761 373.623 280.111L371.872 283.707C390.281 292.671 411.708 297.119 436.099 297.119V293.119ZM373.63 280.115C355.85 271.364 342.078 259.2 332.251 243.626L328.868 245.76C339.117 262.004 353.47 274.651 371.864 283.704L373.63 280.115ZM332.251 243.626C322.44 228.076 317.503 209.895 317.503 189.011H313.503C313.503 210.552 318.604 229.492 328.868 245.76L332.251 243.626ZM317.503 189.011V0.0908966H313.503V189.011H317.503ZM315.503 2.0909H377.009V-1.9091H315.503V2.0909ZM375.009 0.0908966V183.756H379.009V0.0908966H375.009ZM375.009 183.756C375.009 195.135 377.492 205.328 382.508 214.279L385.998 212.323C381.355 204.04 379.009 194.535 379.009 183.756H375.009ZM382.516 214.293C387.627 223.237 394.81 230.267 404.023 235.364L405.96 231.864C397.37 227.112 390.727 220.6 385.989 212.309L382.516 214.293ZM404.023 235.364C413.266 240.477 423.979 243 436.099 243V239C424.545 239 414.52 236.599 405.96 231.864L404.023 235.364ZM436.099 243C448.31 243 459.028 240.478 468.183 235.359L466.231 231.868C457.773 236.597 447.752 239 436.099 239V243ZM468.176 235.364C477.392 230.265 484.532 223.231 489.549 214.279L486.059 212.323C481.417 220.606 474.825 227.114 466.239 231.864L468.176 235.364ZM489.54 214.293C494.657 205.34 497.19 195.142 497.19 183.756H493.19C493.19 194.529 490.8 204.028 486.068 212.309L489.54 214.293ZM497.19 183.756V0.0908966H493.19V183.756H497.19ZM596.22 50.8011H594.22V52.8011H596.22V50.8011ZM596.22 0.0908966V-1.9091H594.22V0.0908966H596.22ZM835.141 0.0908966H837.141V-1.9091H835.141V0.0908966ZM835.141 50.8011V52.8011H837.141V50.8011H835.141ZM746.078 50.8011V48.8011H744.078V50.8011H746.078ZM746.078 291V293H748.078V291H746.078ZM685.283 291H683.283V293H685.283V291ZM685.283 50.8011H687.283V48.8011H685.283V50.8011ZM598.22 50.8011V0.0908966H594.22V50.8011H598.22ZM596.22 2.0909H835.141V-1.9091H596.22V2.0909ZM833.141 0.0908966V50.8011H837.141V0.0908966H833.141ZM835.141 48.8011H746.078V52.8011H835.141V48.8011ZM744.078 50.8011V291H748.078V50.8011H744.078ZM746.078 289H685.283V293H746.078V289ZM687.283 291V50.8011H683.283V291H687.283ZM685.283 48.8011H596.22V52.8011H685.283V48.8011ZM874.487 291H872.487V293H874.487V291ZM874.487 0.0908966V-1.9091H872.487V0.0908966H874.487ZM1045.51 11.8807L1044.61 13.6652L1044.61 13.6684L1044.62 13.6717L1045.51 11.8807ZM1081.16 44.9773L1079.43 45.9671L1079.43 45.9739L1079.43 45.9807L1081.16 44.9773ZM1081.02 144.977L1082.73 146.01L1082.74 146.005L1081.02 144.977ZM1044.8 176.795L1043.95 174.983L1043.95 174.985L1044.8 176.795ZM910.851 187.875H908.851V189.875H910.851V187.875ZM910.851 138.443V136.443H908.851V138.443H910.851ZM1007.02 133.614L1007.78 135.461L1007.02 133.614ZM1024.35 119.125L1022.63 118.092L1022.63 118.102L1022.62 118.111L1024.35 119.125ZM1024.35 70.6875L1022.61 71.6798L1022.61 71.6891L1022.62 71.6983L1024.35 70.6875ZM1006.87 55.6307L1006.05 57.4537L1006.06 57.4597L1006.08 57.4655L1006.87 55.6307ZM935.993 50.375V48.375H933.993V50.375H935.993ZM935.993 291V293H937.993V291H935.993ZM1031.59 158.614L1033.34 157.655L1032.78 156.614H1031.59V158.614ZM1103.89 291V293H1107.26L1105.65 290.041L1103.89 291ZM1035.99 291L1034.23 291.943L1034.79 293H1035.99V291ZM965.254 158.614V156.614H961.918L963.49 159.556L965.254 158.614ZM876.487 291V0.0908966H872.487V291H876.487ZM874.487 2.0909H989.26V-1.9091H874.487V2.0909ZM989.26 2.0909C1011 2.0909 1029.42 5.97924 1044.61 13.6652L1046.41 10.0962C1030.54 2.06241 1011.46 -1.9091 989.26 -1.9091V2.0909ZM1044.62 13.6717C1059.91 21.2712 1071.49 32.0345 1079.43 45.9671L1082.9 43.9875C1074.55 29.3215 1062.36 18.0205 1046.4 10.0897L1044.62 13.6717ZM1079.43 45.9807C1087.47 59.8319 1091.52 76.1875 1091.52 95.1193H1095.52C1095.52 75.6041 1091.34 58.5318 1082.89 43.9738L1079.43 45.9807ZM1091.52 95.1193C1091.52 114.145 1087.42 130.395 1079.31 143.95L1082.74 146.005C1091.29 131.719 1095.52 114.73 1095.52 95.1193H1091.52ZM1079.31 143.945C1071.2 157.403 1059.44 167.751 1043.95 174.983L1045.65 178.608C1061.79 171.067 1074.18 160.203 1082.73 146.01L1079.31 143.945ZM1043.95 174.985C1028.56 182.216 1009.83 185.875 987.697 185.875V189.875C1010.26 189.875 1029.6 186.147 1045.65 178.606L1043.95 174.985ZM987.697 185.875H910.851V189.875H987.697V185.875ZM912.851 187.875V138.443H908.851V187.875H912.851ZM910.851 140.443H977.754V136.443H910.851V140.443ZM977.754 140.443C989.663 140.443 999.698 138.813 1007.78 135.461L1006.25 131.766C998.803 134.854 989.331 136.443 977.754 136.443V140.443ZM1007.78 135.461C1015.9 132.097 1022.03 126.999 1026.07 120.139L1022.62 118.111C1019.08 124.13 1013.67 128.691 1006.25 131.766L1007.78 135.461ZM1026.06 120.158C1030.17 113.332 1032.17 104.95 1032.17 95.1193H1028.17C1028.17 104.417 1026.28 112.039 1022.63 118.092L1026.06 120.158ZM1032.17 95.1193C1032.17 85.1952 1030.17 76.6816 1026.07 69.6767L1022.62 71.6983C1026.28 77.951 1028.17 85.7253 1028.17 95.1193H1032.17ZM1026.08 69.6952C1022.05 62.646 1015.87 57.3548 1007.67 53.7958L1006.08 57.4655C1013.59 60.7247 1019.06 65.4714 1022.61 71.6798L1026.08 69.6952ZM1007.7 53.8077C999.592 50.1511 989.488 48.375 977.47 48.375V52.375C989.127 52.375 998.624 54.1027 1006.05 57.4537L1007.7 53.8077ZM977.47 48.375H935.993V52.375H977.47V48.375ZM933.993 50.375V291H937.993V50.375H933.993ZM935.993 289H874.487V293H935.993V289ZM1029.83 159.572L1102.14 291.959L1105.65 290.041L1033.34 157.655L1029.83 159.572ZM1103.89 289H1035.99V293H1103.89V289ZM1037.76 290.057L967.018 157.671L963.49 159.556L1034.23 291.943L1037.76 290.057ZM965.254 160.614H1031.59V156.614H965.254V160.614ZM1187.13 291V293H1188.58L1189.03 291.619L1187.13 291ZM1121.22 291L1119.33 290.347L1118.41 293H1121.22V291ZM1221.65 0.0908966V-1.9091H1220.22L1219.76 -0.561737L1221.65 0.0908966ZM1300.91 0.0908966L1302.8 -0.560913L1302.33 -1.9091H1300.91V0.0908966ZM1401.19 291V293H1404L1403.08 290.348L1401.19 291ZM1335.28 291L1333.38 291.618L1333.83 293H1335.28V291ZM1262.41 66.5682L1264.32 65.9505L1263.87 64.5682H1262.41V66.5682ZM1260.14 66.5682V64.5682H1258.69L1258.24 65.9495L1260.14 66.5682ZM1183.01 176.653V174.653H1181.01V176.653H1183.01ZM1338.69 176.653H1340.69V174.653H1338.69V176.653ZM1338.69 224.665V226.665H1340.69V224.665H1338.69ZM1183.01 224.665H1181.01V226.665H1183.01V224.665ZM1187.13 289H1121.22V293H1187.13V289ZM1123.11 291.653L1223.54 0.743538L1219.76 -0.561737L1119.33 290.347L1123.11 291.653ZM1221.65 2.0909H1300.91V-1.9091H1221.65V2.0909ZM1299.02 0.742714L1399.3 291.652L1403.08 290.348L1302.8 -0.560913L1299.02 0.742714ZM1401.19 289H1335.28V293H1401.19V289ZM1337.18 290.382L1264.32 65.9505L1260.51 67.1858L1333.38 291.618L1337.18 290.382ZM1262.41 64.5682H1260.14V68.5682H1262.41V64.5682ZM1258.24 65.9495L1185.23 290.381L1189.03 291.619L1262.04 67.1869L1258.24 65.9495ZM1183.01 178.653H1338.69V174.653H1183.01V178.653ZM1336.69 176.653V224.665H1340.69V176.653H1336.69ZM1338.69 222.665H1183.01V226.665H1338.69V222.665ZM1185.01 224.665V176.653H1181.01V224.665H1185.01ZM1679.53 0.0908966H1681.53V-1.9091H1679.53V0.0908966ZM1679.53 291V293H1681.53V291H1679.53ZM1626.4 291L1624.76 292.137L1625.36 293H1626.4V291ZM1499.84 107.903L1501.49 106.766L1500.89 105.903H1499.84V107.903ZM1497.71 107.903V105.903H1495.71V107.903H1497.71ZM1497.71 291V293H1499.71V291H1497.71ZM1436.21 291H1434.21V293H1436.21V291ZM1436.21 0.0908966V-1.9091H1434.21V0.0908966H1436.21ZM1490.18 0.0908966L1491.83 -1.04086L1491.24 -1.9091H1490.18V0.0908966ZM1615.75 183.045L1614.1 184.177L1614.7 185.045H1615.75V183.045ZM1618.31 183.045V185.045H1620.31V183.045H1618.31ZM1618.31 0.0908966V-1.9091H1616.31V0.0908966H1618.31ZM1677.53 0.0908966V291H1681.53V0.0908966H1677.53ZM1679.53 289H1626.4V293H1679.53V289ZM1628.05 289.863L1501.49 106.766L1498.2 109.041L1624.76 292.137L1628.05 289.863ZM1499.84 105.903H1497.71V109.903H1499.84V105.903ZM1495.71 107.903V291H1499.71V107.903H1495.71ZM1497.71 289H1436.21V293H1497.71V289ZM1438.21 291V0.0908966H1434.21V291H1438.21ZM1436.21 2.0909H1490.18V-1.9091H1436.21V2.0909ZM1488.53 1.22266L1614.1 184.177L1617.4 181.914L1491.83 -1.04086L1488.53 1.22266ZM1615.75 185.045H1618.31V181.045H1615.75V185.045ZM1620.31 183.045V0.0908966H1616.31V183.045H1620.31ZM1618.31 2.0909H1679.53V-1.9091H1618.31V2.0909Z" fill="white"/>
</svg>
