<svg width="1412" height="188" viewBox="0 0 1412 188" fill="none" xmlns="http://www.w3.org/2000/svg">
<path d="M124.364 61.9531L122.442 62.506L122.858 63.9531H124.364V61.9531ZM119.126 50.5007L117.462 51.6101L117.466 51.6169L117.471 51.6237L119.126 50.5007ZM110.869 41.978L109.679 43.5851L109.696 43.5974L109.712 43.6095L110.869 41.978ZM99.8608 36.5625L99.2785 38.4759L99.2861 38.4782L99.8608 36.5625ZM61.7749 41.6229L60.6785 39.9501L60.672 39.9544L61.7749 41.6229ZM45.4396 61.7756L47.2662 62.5901L47.2683 62.5856L45.4396 61.7756ZM61.6861 146.559L60.5799 148.225L60.5897 148.232L61.6861 146.559ZM108.916 148.867L109.811 150.656L109.817 150.653L108.916 148.867ZM123.121 135.639L121.393 134.631L121.389 134.638L121.385 134.645L123.121 135.639ZM128.092 115.487L128.385 113.508L126.092 113.169V115.487H128.092ZM135.905 116.641V118.641L136.197 114.662L135.905 116.641ZM89.0298 116.641H87.0298V118.641H89.0298V116.641ZM89.0298 87.6989V85.6989H87.0298V87.6989H89.0298ZM165.113 87.6989H167.113V85.6989H165.113V87.6989ZM154.992 151.797L156.714 152.814L156.717 152.81L154.992 151.797ZM127.116 178.253L128.038 180.027L128.045 180.024L127.116 178.253ZM41.5334 176.211L40.5207 177.936L40.5266 177.939L41.5334 176.211ZM11.3487 143.984L9.56899 144.897L9.57367 144.906L11.3487 143.984ZM6.99858 54.8508L5.12435 54.1528L5.12239 54.1581L6.99858 54.8508ZM25.1094 25.3764L26.5498 26.7639L26.5498 26.7639L25.1094 25.3764ZM52.1868 6.99928L51.4312 5.14751L51.4312 5.14751L52.1868 6.99928ZM114.42 5.22372L113.777 7.1173L113.788 7.12109L114.42 5.22372ZM138.036 17.8303L136.793 19.3973L136.799 19.4024L138.036 17.8303ZM154.992 37.2727L153.264 38.2796L153.268 38.2856L154.992 37.2727ZM163.426 61.9531V63.9531H165.721L165.407 61.6794L163.426 61.9531ZM126.286 61.4002C124.991 56.9013 123.162 52.8868 120.781 49.3777L117.471 51.6237C119.588 54.7434 121.25 58.3639 122.442 62.506L126.286 61.4002ZM120.79 49.3913C118.407 45.8175 115.484 42.7986 112.026 40.3465L109.712 43.6095C112.765 45.7739 115.346 48.4368 117.462 51.6101L120.79 49.3913ZM112.06 40.3709C108.662 37.8542 104.781 35.9504 100.435 34.6468L99.2861 38.4782C103.227 39.6604 106.684 41.3669 109.679 43.5851L112.06 40.3709ZM100.443 34.6492C96.1425 33.3403 91.4149 32.6982 86.2777 32.6982V36.6982C91.0836 36.6982 95.4115 37.2989 99.2785 38.4758L100.443 34.6492ZM86.2777 32.6982C76.6379 32.6982 68.0807 35.0983 60.6785 39.9502L62.8712 43.2956C69.5552 38.9145 77.3333 36.6982 86.2777 36.6982V32.6982ZM60.672 39.9544C53.3228 44.8124 47.648 51.8517 43.611 60.9656L47.2683 62.5856C51.0437 54.0621 56.2591 47.6663 62.8777 43.2913L60.672 39.9544ZM43.613 60.961C39.5621 70.045 37.5803 81.0526 37.5803 93.9134H41.5803C41.5803 81.4426 43.5047 71.0251 47.2662 62.5901L43.613 60.961ZM37.5803 93.9134C37.5803 106.772 39.5319 117.83 43.5157 127.024L47.186 125.433C43.4757 116.871 41.5803 106.386 41.5803 93.9134H37.5803ZM43.5157 127.024C47.4937 136.204 53.1701 143.306 60.5799 148.225L62.7922 144.893C56.1159 140.46 50.9021 134.009 47.186 125.433L43.5157 127.024ZM60.5897 148.232C68.0021 153.09 76.7108 155.484 86.6328 155.484V151.484C77.3787 151.484 69.4562 149.261 62.7825 144.886L60.5897 148.232ZM86.6328 155.484C95.5637 155.484 103.314 153.904 109.811 150.656L108.022 147.078C102.208 149.985 95.1025 151.484 86.6328 151.484V155.484ZM109.817 150.653C116.358 147.351 121.394 142.677 124.856 136.633L121.385 134.645C118.337 139.965 113.903 144.11 108.015 147.082L109.817 150.653ZM124.848 136.647C128.371 130.609 130.092 123.53 130.092 115.487H126.092C126.092 122.949 124.5 129.306 121.393 134.631L124.848 136.647ZM127.8 117.465L135.613 118.619L136.197 114.662L128.385 113.508L127.8 117.465ZM135.905 114.641H89.0298V118.641H135.905V114.641ZM91.0298 116.641V87.6989H87.0298V116.641H91.0298ZM89.0298 89.6989H165.113V85.6989H89.0298V89.6989ZM163.113 87.6989V110.604H167.113V87.6989H163.113ZM163.113 110.604C163.113 126.299 159.801 139.665 153.268 150.784L156.717 152.81C163.677 140.965 167.113 126.869 167.113 110.604H163.113ZM153.27 150.78C146.714 161.88 137.697 170.439 126.186 176.482L128.045 180.024C140.209 173.638 149.777 164.559 156.714 152.814L153.27 150.78ZM126.193 176.478C114.68 182.465 101.451 185.486 86.4553 185.486V189.486C102 189.486 115.878 186.351 128.038 180.027L126.193 176.478ZM86.4553 185.486C69.7126 185.486 55.0958 181.797 42.5401 174.483L40.5266 177.939C53.7759 185.658 69.107 189.486 86.4553 189.486V185.486ZM42.546 174.486C29.984 167.11 20.1796 156.654 13.1238 143.063L9.57367 144.906C16.9592 159.132 27.2778 170.16 40.5207 177.936L42.546 174.486ZM13.1284 143.072C6.14039 129.442 2.60653 113.197 2.60653 94.2685H-1.39347C-1.39347 113.693 2.23414 130.591 9.56901 144.897L13.1284 143.072ZM2.60653 94.2685C2.60653 79.7221 4.70971 66.824 8.87477 55.5436L5.12239 54.1581C0.764718 65.9601 -1.39347 79.3404 -1.39347 94.2685H2.60653ZM8.87281 55.5489C13.1079 44.1779 19.0064 34.5952 26.5498 26.7639L23.6689 23.9889C15.7057 32.2561 9.53032 42.3231 5.12435 54.1528L8.87281 55.5489ZM26.5498 26.7639C34.1107 18.9145 42.9035 12.9474 52.9424 8.85105L51.4312 5.14751C40.8735 9.45554 31.6147 15.7399 23.6689 23.9889L26.5498 26.7639ZM52.9424 8.85105C62.9821 4.75438 73.8797 2.69602 85.6562 2.69602V-1.30398C73.4034 -1.30398 61.988 0.839832 51.4312 5.14751L52.9424 8.85105ZM85.6562 2.69602C95.757 2.69602 105.125 4.17587 113.777 7.11726L115.064 3.33017C105.96 0.234635 96.1521 -1.30398 85.6562 -1.30398V2.69602ZM113.788 7.12109C122.46 10.0117 130.122 14.1066 136.793 19.3972L139.278 16.2633C132.218 10.6638 124.137 6.35431 115.053 3.32635L113.788 7.12109ZM136.799 19.4024C143.528 24.6937 149.013 30.9836 153.264 38.2796L156.72 36.2658C152.212 28.5287 146.392 21.8569 139.272 16.2581L136.799 19.4024ZM153.268 38.2856C157.507 45.5046 160.236 53.4782 161.445 62.2268L165.407 61.6794C164.13 52.4356 161.236 43.9556 156.717 36.2599L153.268 38.2856ZM163.426 59.9531H124.364V63.9531H163.426V59.9531ZM219.712 185V187H221.164L221.614 185.619L219.712 185ZM178.518 185L176.628 184.347L175.712 187H178.518V185ZM241.285 3.18181V1.18181H239.859L239.394 2.52918L241.285 3.18181ZM290.823 3.18181L292.714 2.53L292.249 1.18181H290.823V3.18181ZM353.501 185V187H356.306L355.392 184.348L353.501 185ZM312.308 185L310.405 185.618L310.854 187H312.308V185ZM266.764 44.7301L268.666 44.1125L268.218 42.7301H266.764V44.7301ZM265.344 44.7301V42.7301H263.891L263.442 44.1114L265.344 44.7301ZM217.137 113.533V111.533H215.137V113.533H217.137ZM314.438 113.533H316.438V111.533H314.438V113.533ZM314.438 143.54V145.54H316.438V143.54H314.438ZM217.137 143.54H215.137V145.54H217.137V143.54ZM219.712 183H178.518V187H219.712V183ZM180.409 185.653L243.175 3.83445L239.394 2.52918L176.628 184.347L180.409 185.653ZM241.285 5.18181H290.823V1.18181H241.285V5.18181ZM288.932 3.83362L351.61 185.652L355.392 184.348L292.714 2.53L288.932 3.83362ZM353.501 183H312.308V187H353.501V183ZM314.21 184.382L268.666 44.1125L264.862 45.3477L310.405 185.618L314.21 184.382ZM266.764 42.7301H265.344V46.7301H266.764V42.7301ZM263.442 44.1114L217.81 184.381L221.614 185.619L267.246 45.3488L263.442 44.1114ZM217.137 115.533H314.438V111.533H217.137V115.533ZM312.438 113.533V143.54H316.438V113.533H312.438ZM314.438 141.54H217.137V145.54H314.438V141.54ZM219.137 143.54V113.533H215.137V143.54H219.137ZM346.243 34.8757H344.243V36.8757H346.243V34.8757ZM346.243 3.18181V1.18181H344.243V3.18181H346.243ZM495.568 3.18181H497.568V1.18181H495.568V3.18181ZM495.568 34.8757V36.8757H497.568V34.8757H495.568ZM439.904 34.8757V32.8757H437.904V34.8757H439.904ZM439.904 185V187H441.904V185H439.904ZM401.907 185H399.907V187H401.907V185ZM401.907 34.8757H403.907V32.8757H401.907V34.8757ZM348.243 34.8757V3.18181H344.243V34.8757H348.243ZM346.243 5.18181H495.568V1.18181H346.243V5.18181ZM493.568 3.18181V34.8757H497.568V3.18181H493.568ZM495.568 32.8757H439.904V36.8757H495.568V32.8757ZM437.904 34.8757V185H441.904V34.8757H437.904ZM439.904 183H401.907V187H439.904V183ZM403.907 185V34.8757H399.907V185H403.907ZM401.907 32.8757H346.243V36.8757H401.907V32.8757ZM520.16 185H518.16V187H520.16V185ZM520.16 3.18181V1.18181H518.16V3.18181H520.16ZM642.674 3.18181H644.674V1.18181H642.674V3.18181ZM642.674 34.8757V36.8757H644.674V34.8757H642.674ZM558.601 34.8757V32.8757H556.601V34.8757H558.601ZM558.601 78.1996H556.601V80.1996H558.601V78.1996ZM636.371 78.1996H638.371V76.1996H636.371V78.1996ZM636.371 109.893V111.893H638.371V109.893H636.371ZM558.601 109.893V107.893H556.601V109.893H558.601ZM558.601 153.306H556.601V155.306H558.601V153.306ZM643.029 153.306H645.029V151.306H643.029V153.306ZM643.029 185V187H645.029V185H643.029ZM522.16 185V3.18181H518.16V185H522.16ZM520.16 5.18181H642.674V1.18181H520.16V5.18181ZM640.674 3.18181V34.8757H644.674V3.18181H640.674ZM642.674 32.8757H558.601V36.8757H642.674V32.8757ZM556.601 34.8757V78.1996H560.601V34.8757H556.601ZM558.601 80.1996H636.371V76.1996H558.601V80.1996ZM634.371 78.1996V109.893H638.371V78.1996H634.371ZM636.371 107.893H558.601V111.893H636.371V107.893ZM556.601 109.893V153.306H560.601V109.893H556.601ZM558.601 155.306H643.029V151.306H558.601V155.306ZM641.029 153.306V185H645.029V153.306H641.029ZM643.029 183H520.16V187H643.029V183ZM704.575 185V187H706.027L706.477 185.619L704.575 185ZM663.382 185L661.491 184.347L660.575 187H663.382V185ZM726.148 3.18181V1.18181H724.723L724.258 2.52918L726.148 3.18181ZM775.686 3.18181L777.577 2.53L777.112 1.18181H775.686V3.18181ZM838.364 185V187H841.169L840.255 184.348L838.364 185ZM797.171 185L795.269 185.618L795.717 187H797.171V185ZM751.627 44.7301L753.53 44.1125L753.081 42.7301H751.627V44.7301ZM750.207 44.7301V42.7301H748.754L748.305 44.1114L750.207 44.7301ZM702 113.533V111.533H700V113.533H702ZM799.301 113.533H801.301V111.533H799.301V113.533ZM799.301 143.54V145.54H801.301V143.54H799.301ZM702 143.54H700V145.54H702V143.54ZM704.575 183H663.382V187H704.575V183ZM665.272 185.653L728.039 3.83445L724.258 2.52918L661.491 184.347L665.272 185.653ZM726.148 5.18181H775.686V1.18181H726.148V5.18181ZM773.796 3.83362L836.473 185.652L840.255 184.348L777.577 2.53L773.796 3.83362ZM838.364 183H797.171V187H838.364V183ZM799.073 184.382L753.53 44.1125L749.725 45.3477L795.269 185.618L799.073 184.382ZM751.627 42.7301H750.207V46.7301H751.627V42.7301ZM748.305 44.1114L702.673 184.381L706.477 185.619L752.109 45.3488L748.305 44.1114ZM702 115.533H799.301V111.533H702V115.533ZM797.301 113.533V143.54H801.301V113.533H797.301ZM799.301 141.54H702V145.54H799.301V141.54ZM704 143.54V113.533H700V143.54H704ZM882.864 185L880.941 185.55L881.356 187H882.864V185ZM830.84 3.18181V1.18181H828.187L828.917 3.732L830.84 3.18181ZM872.832 3.18181L874.778 2.71833L874.412 1.18181H872.832V3.18181ZM902.928 129.513L900.983 129.977L901.349 131.513H902.928V129.513ZM904.437 129.513V131.513H905.98L906.372 130.022L904.437 129.513ZM937.64 3.18181V1.18181H936.098L935.706 2.67343L937.64 3.18181ZM973.596 3.18181L975.531 2.6757L975.14 1.18181H973.596V3.18181ZM1006.71 129.78L1004.78 130.286L1005.17 131.78H1006.71V129.78ZM1008.31 129.78V131.78H1009.89L1010.25 130.242L1008.31 129.78ZM1038.4 3.18181V1.18181H1036.82L1036.46 2.71925L1038.4 3.18181ZM1080.4 3.18181L1082.32 3.732L1083.05 1.18181H1080.4V3.18181ZM1028.37 185V187H1029.88L1030.29 185.55L1028.37 185ZM990.907 185L988.987 185.559L989.407 187H990.907V185ZM956.284 66.1257L958.204 65.5664L957.785 64.1257H956.284V66.1257ZM954.863 66.1257V64.1257H953.362L952.943 65.5677L954.863 66.1257ZM920.329 185V187H921.83L922.249 185.558L920.329 185ZM884.787 184.45L832.763 2.63163L828.917 3.732L880.941 185.55L884.787 184.45ZM830.84 5.18181H872.832V1.18181H830.84V5.18181ZM870.887 3.6453L900.983 129.977L904.874 129.05L874.778 2.71833L870.887 3.6453ZM902.928 131.513H904.437V127.513H902.928V131.513ZM906.372 130.022L939.575 3.6902L935.706 2.67343L902.503 129.005L906.372 130.022ZM937.64 5.18181H973.596V1.18181H937.64V5.18181ZM971.661 3.68793L1004.78 130.286L1008.64 129.274L975.531 2.6757L971.661 3.68793ZM1006.71 131.78H1008.31V127.78H1006.71V131.78ZM1010.25 130.242L1040.35 3.64438L1036.46 2.71925L1006.36 129.317L1010.25 130.242ZM1038.4 5.18181H1080.4V1.18181H1038.4V5.18181ZM1078.47 2.63163L1026.45 184.45L1030.29 185.55L1082.32 3.732L1078.47 2.63163ZM1028.37 183H990.907V187H1028.37V183ZM992.828 184.441L958.204 65.5664L954.364 66.685L988.987 185.559L992.828 184.441ZM956.284 64.1257H954.863V68.1257H956.284V64.1257ZM952.943 65.5677L918.408 184.442L922.249 185.558L956.784 66.6837L952.943 65.5677ZM920.329 183H882.864V187H920.329V183ZM1114 185V187H1115.45L1115.9 185.619L1114 185ZM1072.81 185L1070.92 184.347L1070 187H1072.81V185ZM1135.57 3.18181V1.18181H1134.15L1133.68 2.52918L1135.57 3.18181ZM1185.11 3.18181L1187 2.53L1186.54 1.18181H1185.11V3.18181ZM1247.79 185V187H1250.59L1249.68 184.348L1247.79 185ZM1206.59 185L1204.69 185.618L1205.14 187H1206.59V185ZM1161.05 44.7301L1162.95 44.1125L1162.5 42.7301H1161.05V44.7301ZM1159.63 44.7301V42.7301H1158.18L1157.73 44.1114L1159.63 44.7301ZM1111.42 113.533V111.533H1109.42V113.533H1111.42ZM1208.73 113.533H1210.73V111.533H1208.73V113.533ZM1208.73 143.54V145.54H1210.73V143.54H1208.73ZM1111.42 143.54H1109.42V145.54H1111.42V143.54ZM1114 183H1072.81V187H1114V183ZM1074.7 185.653L1137.46 3.83445L1133.68 2.52918L1070.92 184.347L1074.7 185.653ZM1135.57 5.18181H1185.11V1.18181H1135.57V5.18181ZM1183.22 3.83362L1245.9 185.652L1249.68 184.348L1187 2.53L1183.22 3.83362ZM1247.79 183H1206.59V187H1247.79V183ZM1208.5 184.382L1162.95 44.1125L1159.15 45.3477L1204.69 185.618L1208.5 184.382ZM1161.05 42.7301H1159.63V46.7301H1161.05V42.7301ZM1157.73 44.1114L1112.1 184.381L1115.9 185.619L1161.53 45.3488L1157.73 44.1114ZM1111.42 115.533H1208.73V111.533H1111.42V115.533ZM1206.73 113.533V143.54H1210.73V113.533H1206.73ZM1208.73 141.54H1111.42V145.54H1208.73V141.54ZM1113.42 143.54V113.533H1109.42V143.54H1113.42ZM1240.46 3.18181V1.18181H1237.04L1238.72 4.16458L1240.46 3.18181ZM1283.52 3.18181L1285.29 2.24595L1284.73 1.18181H1283.52V3.18181ZM1324.98 81.4844L1323.21 82.4202L1323.78 83.4844H1324.98V81.4844ZM1326.76 81.4844V83.4844H1327.96L1328.52 82.4202L1326.76 81.4844ZM1368.22 3.18181V1.18181H1367.01L1366.45 2.24595L1368.22 3.18181ZM1411.27 3.18181L1413.02 4.16458L1414.7 1.18181H1411.27V3.18181ZM1344.96 120.724L1343.21 119.742L1342.96 120.199V120.724H1344.96ZM1344.96 185V187H1346.96V185H1344.96ZM1306.78 185H1304.78V187H1306.78V185ZM1306.78 120.724H1308.78V120.199L1308.52 119.742L1306.78 120.724ZM1240.46 5.18181H1283.52V1.18181H1240.46V5.18181ZM1281.75 4.11768L1323.21 82.4202L1326.75 80.5485L1285.29 2.24595L1281.75 4.11768ZM1324.98 83.4844H1326.76V79.4844H1324.98V83.4844ZM1328.52 82.4202L1369.98 4.11768L1366.45 2.24595L1324.99 80.5485L1328.52 82.4202ZM1368.22 5.18181H1411.27V1.18181H1368.22V5.18181ZM1409.53 2.19904L1343.21 119.742L1346.7 121.707L1413.02 4.16458L1409.53 2.19904ZM1342.96 120.724V185H1346.96V120.724H1342.96ZM1344.96 183H1306.78V187H1344.96V183ZM1308.78 185V120.724H1304.78V185H1308.78ZM1308.52 119.742L1242.21 2.19904L1238.72 4.16458L1305.04 121.707L1308.52 119.742Z" fill="white"/>
</svg>
