<svg width="1282" height="375" viewBox="0 0 1282 375" fill="none" xmlns="http://www.w3.org/2000/svg">
<path d="M247.727 122.906L245.805 123.459L246.222 124.906H247.727V122.906ZM237.251 100.001L235.587 101.111L235.592 101.118L235.596 101.124L237.251 100.001ZM220.739 82.956L219.548 84.5631L219.565 84.5754L219.582 84.5874L220.739 82.956ZM198.722 72.125L198.139 74.0384L198.147 74.0407L198.722 72.125ZM122.55 82.2457L121.453 80.573L121.447 80.5773L122.55 82.2457ZM89.8793 122.551L91.7059 123.366L91.7079 123.361L89.8793 122.551ZM122.372 292.118L121.266 293.784L121.276 293.791L122.372 292.118ZM216.832 296.734L217.727 298.523L217.734 298.52L216.832 296.734ZM245.241 270.278L243.514 269.271L243.51 269.277L243.506 269.284L245.241 270.278ZM255.185 229.973L255.477 227.994L253.185 227.656V229.973H255.185ZM270.81 232.281V234.281L271.102 230.303L270.81 232.281ZM177.06 232.281H175.06V234.281H177.06V232.281ZM177.06 174.398V172.398H175.06V174.398H177.06ZM329.226 174.398H331.226V172.398H329.226V174.398ZM308.984 302.594L310.706 303.611L310.709 303.607L308.984 302.594ZM253.232 355.506L254.154 357.28L254.161 357.276L253.232 355.506ZM82.0668 351.422L81.0541 353.147L81.06 353.15L82.0668 351.422ZM21.6974 286.969L19.9177 287.881L19.9224 287.89L21.6974 286.969ZM12.9972 108.702L11.1229 108.004L11.121 108.009L12.9972 108.702ZM49.2188 49.7528L50.6592 51.1403L50.6592 51.1403L49.2188 49.7528ZM103.374 12.9986L102.618 11.1468L102.618 11.1468L103.374 12.9986ZM227.841 9.44744L227.197 11.341L227.208 11.3448L227.841 9.44744ZM275.071 34.6605L273.828 36.2275L273.835 36.2327L275.071 34.6605ZM308.984 73.5454L307.256 74.5523L307.26 74.5583L308.984 73.5454ZM325.852 122.906V124.906H328.148L327.833 122.633L325.852 122.906ZM249.649 122.353C247.112 113.534 243.537 105.702 238.906 98.8784L235.596 101.124C239.962 107.559 243.371 114.996 245.805 123.459L249.649 122.353ZM238.916 98.892C234.284 91.9446 228.609 86.0848 221.895 81.3245L219.582 84.5874C225.889 89.0601 231.223 94.5639 235.587 101.111L238.916 98.892ZM221.929 81.3489C215.336 76.4648 207.784 72.7558 199.296 70.2093L198.147 74.0407C206.231 76.4658 213.358 79.9775 219.548 84.5631L221.929 81.3489ZM199.304 70.2117C190.919 67.6599 181.664 66.3963 171.555 66.3963V70.3963C181.333 70.3963 190.189 71.6186 198.139 74.0383L199.304 70.2117ZM171.555 66.3963C152.623 66.3963 135.899 71.1047 121.453 80.573L123.646 83.9184C137.373 74.9209 153.319 70.3963 171.555 70.3963V66.3963ZM121.447 80.5773C107.114 90.0517 95.9939 103.809 88.0506 121.741L91.7079 123.361C99.3896 106.019 110.05 92.9057 123.653 83.9142L121.447 80.5773ZM88.0527 121.737C80.0955 139.58 76.1605 161.3 76.1605 186.827H80.1605C80.1605 161.69 84.0381 140.56 91.7059 123.366L88.0527 121.737ZM76.1605 186.827C76.1605 212.351 80.0357 234.181 87.8666 252.253L91.5368 250.662C83.9795 233.222 80.1605 211.965 80.1605 186.827H76.1605ZM87.8666 252.253C95.6916 270.31 106.813 284.189 121.266 293.784L123.478 290.452C109.759 281.344 99.1001 268.116 91.5368 250.662L87.8666 252.253ZM121.276 293.791C135.731 303.266 152.756 307.967 172.266 307.967V303.967C153.423 303.967 137.185 299.436 123.469 290.445L121.276 293.791ZM172.266 307.967C189.897 307.967 205.075 304.849 217.727 298.523L215.938 294.946C203.969 300.93 189.436 303.967 172.266 303.967V307.967ZM217.734 298.52C230.489 292.081 240.259 282.998 246.977 271.273L243.506 269.284C237.203 280.286 228.034 288.84 215.931 294.949L217.734 298.52ZM246.969 271.286C253.806 259.566 257.185 245.77 257.185 229.973H253.185C253.185 245.189 249.935 258.264 243.514 269.271L246.969 271.286ZM254.892 231.952L270.517 234.26L271.102 230.303L255.477 227.994L254.892 231.952ZM270.81 230.281H177.06V234.281H270.81V230.281ZM179.06 232.281V174.398H175.06V232.281H179.06ZM177.06 176.398H329.226V172.398H177.06V176.398ZM327.226 174.398V220.207H331.226V174.398H327.226ZM327.226 220.207C327.226 251.883 320.541 278.98 307.26 301.58L310.709 303.607C324.417 280.28 331.226 252.452 331.226 220.207H327.226ZM307.262 301.577C293.959 324.1 275.65 341.477 252.302 353.735L254.161 357.276C278.162 344.676 297.022 326.779 310.706 303.611L307.262 301.577ZM252.309 353.731C228.958 365.874 202.176 371.972 171.911 371.972V375.972C202.725 375.972 230.156 369.759 254.154 357.28L252.309 353.731ZM171.911 371.972C138.122 371.972 108.532 364.525 83.0735 349.694L81.06 353.15C107.212 368.385 137.517 375.972 171.911 375.972V371.972ZM83.0794 349.697C57.6149 334.746 37.7489 313.547 23.4725 286.047L19.9224 287.89C34.5285 316.025 54.9087 337.795 81.0541 353.147L83.0794 349.697ZM23.4772 286.056C9.32765 258.459 2.21307 225.641 2.21307 187.537H-1.78693C-1.78693 226.137 5.4214 259.607 19.9177 287.881L23.4772 286.056ZM2.21307 187.537C2.21307 158.253 6.44693 132.216 14.8734 109.394L11.121 108.009C2.50193 131.352 -1.78693 157.872 -1.78693 187.537H2.21307ZM14.8714 109.4C23.4271 86.4283 35.3625 67.0209 50.6592 51.1403L47.7783 48.3654C32.0618 64.6818 19.8494 84.5735 11.1229 108.004L14.8714 109.4ZM50.6592 51.1403C65.9734 35.2416 83.792 23.1488 104.129 14.8503L102.618 11.1468C81.762 19.657 63.4774 32.067 47.7783 48.3654L50.6592 51.1403ZM104.129 14.8503C124.467 6.55148 146.521 2.39203 170.312 2.39203V-1.60797C146.045 -1.60797 123.473 2.63694 102.618 11.1468L104.129 14.8503ZM170.312 2.39203C190.712 2.39203 209.668 5.38112 227.197 11.341L228.485 7.55389C210.502 1.43988 191.107 -1.60797 170.312 -1.60797V2.39203ZM227.208 11.3448C244.758 17.1947 260.292 25.4918 273.828 36.2275L276.314 33.0935C262.388 22.0489 246.435 13.5373 228.473 7.55007L227.208 11.3448ZM273.835 36.2327C287.489 46.9691 298.625 59.7397 307.256 74.5523L310.712 72.5385C301.824 57.2849 290.352 44.1322 276.307 33.0883L273.835 36.2327ZM307.26 74.5583C315.879 89.2347 321.42 105.435 323.871 123.18L327.833 122.633C325.313 104.393 319.608 87.6857 310.709 72.5326L307.26 74.5583ZM325.852 120.906H247.727V124.906H325.852V120.906ZM534.476 369H532.476V371H534.476V369ZM534.476 5.36363V3.36363H532.476V5.36363H534.476ZM748.432 21.1662L747.478 22.924L747.487 22.9285L748.432 21.1662ZM792.821 64.6676L791.067 65.6284L791.071 65.6351L791.075 65.6417L792.821 64.6676ZM747.367 235.655L746.443 233.881L746.438 233.883L747.367 235.655ZM584.547 251.102H582.547V253.102H584.547V251.102ZM584.547 189.49V187.49H582.547V189.49H584.547ZM700.137 181.855L701.075 183.622L701.082 183.617L700.137 181.855ZM721.799 160.371L720.028 159.44L720.024 159.449L721.799 160.371ZM721.799 96.9829L720.024 97.9049L720.031 97.9188L720.038 97.9325L721.799 96.9829ZM700.137 75.8537L699.208 77.6249L699.216 77.6294L699.225 77.6338L700.137 75.8537ZM611.358 68.2188V66.2188H609.358V68.2188H611.358ZM611.358 369V371H613.358V369H611.358ZM536.476 369V5.36363H532.476V369H536.476ZM534.476 7.36363H677.942V3.36363H534.476V7.36363ZM677.942 7.36363C705.271 7.36363 728.422 12.5827 747.478 22.924L749.386 19.4084C729.616 8.6796 705.774 3.36363 677.942 3.36363V7.36363ZM747.487 22.9285C766.572 33.1696 781.081 47.398 791.067 65.6284L794.575 63.7068C784.202 44.7687 769.118 29.9961 749.378 19.4039L747.487 22.9285ZM791.075 65.6417C801.184 83.7697 806.269 104.732 806.269 128.588H810.269C810.269 104.148 805.055 82.4973 794.568 63.6935L791.075 65.6417ZM806.269 128.588C806.269 152.44 801.127 173.399 790.902 191.526L794.386 193.491C804.994 174.686 810.269 153.032 810.269 128.588H806.269ZM790.902 191.526C780.686 209.637 765.886 223.752 746.443 233.881L748.291 237.429C768.384 226.961 783.769 212.312 794.386 193.491L790.902 191.526ZM746.438 233.883C727.14 243.998 703.683 249.102 675.989 249.102V253.102C704.166 253.102 728.294 247.909 748.295 237.426L746.438 233.883ZM675.989 249.102H584.547V253.102H675.989V249.102ZM586.547 251.102V189.49H582.547V251.102H586.547ZM584.547 191.49H663.56V187.49H584.547V191.49ZM663.56 191.49C678.57 191.49 691.112 188.91 701.074 183.622L699.199 180.089C689.985 184.98 678.143 187.49 663.56 187.49V191.49ZM701.082 183.617C711.116 178.233 718.639 170.791 723.573 161.293L720.024 159.449C715.488 168.18 708.57 175.06 699.191 180.093L701.082 183.617ZM723.569 161.301C728.594 151.742 731.078 140.82 731.078 128.588H727.078C727.078 140.267 724.71 150.534 720.028 159.44L723.569 161.301ZM731.078 128.588C731.078 116.243 728.596 105.37 723.559 96.0334L720.038 97.9325C724.708 106.588 727.078 116.786 727.078 128.588H731.078ZM723.573 96.061C718.635 86.5542 711.101 79.2222 701.048 74.0736L699.225 77.6338C708.586 82.4283 715.493 89.1825 720.024 97.9049L723.573 96.061ZM701.066 74.0824C690.988 68.7979 678.332 66.2188 663.205 66.2188V70.2188C677.907 70.2188 689.873 72.7295 699.208 77.6249L701.066 74.0824ZM663.205 66.2188H611.358V70.2188H663.205V66.2188ZM609.358 68.2188V369H613.358V68.2188H609.358ZM611.358 367H534.476V371H611.358V367ZM1202.97 109.945L1200.98 110.142L1201.16 111.945H1202.97V109.945ZM1109.04 69.9943L1109.78 71.853L1109.79 71.8487L1109.8 71.8442L1109.04 69.9943ZM1089.16 84.3764L1087.56 83.1764L1087.55 83.1863L1087.54 83.1964L1089.16 84.3764ZM1082.41 105.328L1084.41 105.401L1084.41 105.364V105.328H1082.41ZM1086.5 122.374L1084.79 123.415L1084.8 123.43L1084.81 123.445L1086.5 122.374ZM1099.1 134.98L1097.99 136.644L1098.01 136.653L1098.02 136.661L1099.1 134.98ZM1117.57 144.036L1116.87 145.909L1116.88 145.915L1116.9 145.92L1117.57 144.036ZM1139.94 150.428L1140.4 148.482L1140.39 148.479L1140.38 148.476L1139.94 150.428ZM1172.61 158.24L1172.14 160.185L1172.16 160.189L1172.17 160.192L1172.61 158.24ZM1216.29 172.445L1215.47 174.271L1215.47 174.271L1216.29 172.445ZM1250.74 194.284L1252.06 192.79L1252.06 192.79L1250.74 194.284ZM1273.28 224.824L1271.46 225.651L1271.47 225.659L1271.47 225.667L1273.28 224.824ZM1281.63 265.129L1283.63 265.14L1283.63 265.127L1283.63 265.114L1281.63 265.129ZM1264.58 323.013L1262.94 321.879L1262.94 321.881L1264.58 323.013ZM1216.29 360.832L1217.07 362.674L1217.07 362.672L1216.29 360.832ZM1063.77 360.655L1063 362.502L1063 362.503L1063.77 360.655ZM1012.99 320.705L1011.33 321.829L1011.34 321.836L1011.34 321.842L1012.99 320.705ZM993.988 254.831V252.831H991.942L991.988 254.876L993.988 254.831ZM1068.38 254.831L1070.38 254.695L1070.25 252.831H1068.38V254.831ZM1078.86 285.371L1077.26 286.574L1077.27 286.587L1077.28 286.6L1078.86 285.371ZM1103.9 303.659L1103.16 305.517L1103.17 305.523L1103.18 305.527L1103.9 303.659ZM1173.5 304.014L1172.77 302.151L1172.76 302.154L1173.5 304.014ZM1196.05 288.212L1197.62 289.451L1197.62 289.451L1196.05 288.212ZM1196.76 244.355L1195.23 245.651L1195.24 245.661L1195.25 245.67L1196.76 244.355ZM1175.81 230.151L1175.02 231.989L1175.03 231.992L1175.81 230.151ZM1142.25 219.497L1141.76 221.437L1141.77 221.439L1141.78 221.441L1142.25 219.497ZM1102.65 209.554L1103.14 207.614L1103.13 207.612L1103.13 207.611L1102.65 209.554ZM1030.03 174.575L1028.7 176.067L1028.7 176.067L1030.03 174.575ZM1003.58 110.477L1005.58 110.486L1005.58 110.476L1005.58 110.466L1003.58 110.477ZM1021.15 52.7713L1019.54 51.5956L1019.53 51.6033L1021.15 52.7713ZM1212.03 14.2415L1211.19 16.0593L1211.2 16.0611L1212.03 14.2415ZM1259.26 52.7713L1257.61 53.8998L1257.61 53.8998L1259.26 52.7713ZM1276.66 109.945V111.945H1278.69L1278.66 109.912L1276.66 109.945ZM1204.96 109.747C1203.49 94.9087 1197.14 83.2478 1185.87 74.9534L1183.5 78.1745C1193.78 85.7418 1199.61 96.3346 1200.98 110.142L1204.96 109.747ZM1185.87 74.9534C1174.65 66.6892 1159.56 62.6676 1140.83 62.6676V66.6676C1159.03 66.6676 1173.18 70.5768 1183.5 78.1745L1185.87 74.9534ZM1140.83 62.6676C1128.1 62.6676 1117.23 64.4665 1108.28 68.1444L1109.8 71.8442C1118.14 68.4198 1128.46 66.6676 1140.83 66.6676V62.6676ZM1108.31 68.1356C1099.39 71.6759 1092.44 76.6702 1087.56 83.1764L1090.76 85.5764C1095.11 79.772 1101.41 75.1782 1109.78 71.853L1108.31 68.1356ZM1087.54 83.1964C1082.79 89.7032 1080.41 97.1026 1080.41 105.328H1084.41C1084.41 97.9286 1086.53 91.3602 1090.77 85.5564L1087.54 83.1964ZM1080.41 105.255C1080.16 112.099 1081.6 118.18 1084.79 123.415L1088.2 121.332C1085.48 116.861 1084.19 111.578 1084.41 105.401L1080.41 105.255ZM1084.81 123.445C1088.05 128.559 1092.46 132.956 1097.99 136.644L1100.21 133.316C1095.09 129.902 1091.1 125.894 1088.18 121.302L1084.81 123.445ZM1098.02 136.661C1103.48 140.184 1109.77 143.264 1116.87 145.909L1118.27 142.162C1111.39 139.599 1105.37 136.642 1100.18 133.299L1098.02 136.661ZM1116.9 145.92C1123.96 148.435 1131.5 150.588 1139.5 152.379L1140.38 148.476C1132.52 146.716 1125.14 144.607 1118.24 142.151L1116.9 145.92ZM1139.47 152.373L1172.14 160.185L1173.08 156.295L1140.4 148.482L1139.47 152.373ZM1172.17 160.192C1187.92 163.717 1202.35 168.413 1215.47 174.271L1217.1 170.618C1203.71 164.639 1189.02 159.865 1173.05 156.288L1172.17 160.192ZM1215.47 174.271C1228.57 180.115 1239.87 187.288 1249.41 195.778L1252.06 192.79C1242.19 183.998 1230.53 176.611 1217.1 170.618L1215.47 174.271ZM1249.41 195.778C1258.91 204.235 1266.25 214.189 1271.46 225.651L1275.11 223.996C1269.66 212.021 1261.98 201.615 1252.06 192.79L1249.41 195.778ZM1271.47 225.667C1276.78 237.085 1279.51 250.23 1279.63 265.145L1283.63 265.114C1283.51 249.725 1280.68 236 1275.1 223.981L1271.47 225.667ZM1279.63 265.119C1279.51 287.022 1273.93 305.914 1262.94 321.879L1266.23 324.147C1277.73 307.441 1283.51 287.744 1283.63 265.14L1279.63 265.119ZM1262.94 321.881C1252.06 337.736 1236.28 350.121 1215.5 358.993L1217.07 362.672C1238.44 353.551 1254.86 340.723 1266.23 324.144L1262.94 321.881ZM1215.51 358.991C1194.87 367.738 1169.87 372.149 1140.47 372.149V376.149C1170.26 376.149 1195.81 371.683 1217.07 362.674L1215.51 358.991ZM1140.47 372.149C1111.32 372.149 1086.02 367.681 1064.53 358.806L1063 362.503C1085.08 371.621 1110.92 376.149 1140.47 376.149V372.149ZM1064.53 358.808C1043.19 349.945 1026.59 336.859 1014.63 319.567L1011.34 321.842C1023.77 339.825 1041.02 353.373 1063 362.502L1064.53 358.808ZM1014.64 319.58C1002.83 302.207 996.572 280.645 995.987 254.786L991.988 254.876C992.587 281.337 998.999 303.691 1011.33 321.829L1014.64 319.58ZM993.988 256.831H1068.38V252.831H993.988V256.831ZM1066.39 254.967C1067.24 267.469 1070.83 278.041 1077.26 286.574L1080.46 284.167C1074.58 276.365 1071.19 266.577 1070.38 254.695L1066.39 254.967ZM1077.28 286.6C1083.8 294.957 1092.44 301.256 1103.16 305.517L1104.63 301.801C1094.51 297.776 1086.47 291.883 1080.44 284.141L1077.28 286.6ZM1103.18 305.527C1113.98 309.653 1126.12 311.696 1139.58 311.696V307.696C1126.53 307.696 1114.88 305.715 1104.61 301.791L1103.18 305.527ZM1139.58 311.696C1152.79 311.696 1164.36 309.775 1174.23 305.874L1172.76 302.154C1163.46 305.829 1152.42 307.696 1139.58 307.696V311.696ZM1174.22 305.877C1184.19 301.988 1192.03 296.531 1197.62 289.451L1194.48 286.972C1189.41 293.387 1182.22 298.465 1172.77 302.151L1174.22 305.877ZM1197.62 289.451C1203.23 282.344 1206.04 274.152 1206.04 264.952H1202.04C1202.04 273.271 1199.52 280.585 1194.48 286.972L1197.62 289.451ZM1206.04 264.952C1206.04 256.356 1203.47 249.008 1198.26 243.04L1195.25 245.67C1199.75 250.829 1202.04 257.212 1202.04 264.952H1206.04ZM1198.28 243.059C1193.28 237.187 1186 232.294 1176.59 228.309L1175.03 231.992C1184.07 235.82 1190.76 240.397 1195.23 245.651L1198.28 243.059ZM1176.59 228.312C1167.35 224.349 1156.05 220.766 1142.72 217.553L1141.78 221.441C1154.96 224.62 1166.04 228.14 1175.02 231.989L1176.59 228.312ZM1142.73 217.557L1103.14 207.614L1102.17 211.494L1141.76 221.437L1142.73 217.557ZM1103.13 207.611C1072.69 200.207 1048.81 188.667 1031.36 173.084L1028.7 176.067C1046.77 192.207 1071.3 203.987 1102.18 211.497L1103.13 207.611ZM1031.36 173.084C1014.09 157.655 1005.46 136.866 1005.58 110.486L1001.58 110.468C1001.46 137.829 1010.46 159.772 1028.7 176.067L1031.36 173.084ZM1005.58 110.466C1005.46 88.8338 1011.21 70.0197 1022.78 53.9393L1019.53 51.6033C1007.42 68.4301 1001.46 88.0866 1001.58 110.488L1005.58 110.466ZM1022.77 53.947C1034.5 37.8114 1050.6 25.1778 1071.15 16.0699L1069.53 12.413C1048.41 21.7711 1031.72 34.824 1019.54 51.5957L1022.77 53.947ZM1071.15 16.0699C1091.69 6.96709 1115.08 2.39203 1141.36 2.39203V-1.60797C1114.61 -1.60797 1090.65 3.04993 1069.53 12.413L1071.15 16.0699ZM1141.36 2.39203C1168.12 2.39203 1191.38 6.96968 1211.19 16.0593L1212.86 12.4237C1192.43 3.04734 1168.57 -1.60797 1141.36 -1.60797V2.39203ZM1211.2 16.0611C1231.15 25.1609 1246.59 37.7811 1257.61 53.8998L1260.91 51.6428C1249.43 34.8543 1233.39 21.788 1212.86 12.4218L1211.2 16.0611ZM1257.61 53.8998C1268.61 70.002 1274.31 88.6713 1274.66 109.977L1278.66 109.912C1278.3 87.894 1272.39 68.4478 1260.91 51.6428L1257.61 53.8998ZM1276.66 107.945H1202.97V111.945H1276.66V107.945Z" fill="white"/>
</svg>
