<svg width="1510" height="188" viewBox="0 0 1510 188" fill="none" xmlns="http://www.w3.org/2000/svg">
<path d="M124.364 61.9531L122.442 62.506L122.858 63.9531H124.364V61.9531ZM119.126 50.5007L117.462 51.6101L117.466 51.6169L117.471 51.6237L119.126 50.5007ZM110.869 41.978L109.679 43.5851L109.696 43.5974L109.712 43.6095L110.869 41.978ZM99.8608 36.5625L99.2785 38.4759L99.2861 38.4782L99.8608 36.5625ZM61.7749 41.6229L60.6785 39.9501L60.672 39.9544L61.7749 41.6229ZM45.4396 61.7756L47.2662 62.5901L47.2683 62.5856L45.4396 61.7756ZM61.6861 146.559L60.5799 148.225L60.5897 148.232L61.6861 146.559ZM108.916 148.867L109.811 150.656L109.817 150.653L108.916 148.867ZM123.121 135.639L121.393 134.631L121.389 134.638L121.385 134.645L123.121 135.639ZM128.092 115.487L128.385 113.508L126.092 113.169V115.487H128.092ZM135.905 116.641V118.641L136.197 114.662L135.905 116.641ZM89.0298 116.641H87.0298V118.641H89.0298V116.641ZM89.0298 87.6989V85.6989H87.0298V87.6989H89.0298ZM165.113 87.6989H167.113V85.6989H165.113V87.6989ZM154.992 151.797L156.714 152.814L156.717 152.81L154.992 151.797ZM127.116 178.253L128.038 180.027L128.045 180.024L127.116 178.253ZM41.5334 176.211L40.5207 177.936L40.5266 177.939L41.5334 176.211ZM11.3487 143.984L9.56899 144.897L9.57367 144.906L11.3487 143.984ZM6.99858 54.8508L5.12435 54.1528L5.12239 54.1581L6.99858 54.8508ZM25.1094 25.3764L26.5498 26.7639L26.5498 26.7639L25.1094 25.3764ZM52.1868 6.99928L51.4312 5.14751L51.4312 5.14751L52.1868 6.99928ZM114.42 5.22372L113.777 7.1173L113.788 7.12109L114.42 5.22372ZM138.036 17.8303L136.793 19.3973L136.799 19.4024L138.036 17.8303ZM154.992 37.2727L153.264 38.2796L153.268 38.2856L154.992 37.2727ZM163.426 61.9531V63.9531H165.721L165.407 61.6794L163.426 61.9531ZM126.286 61.4002C124.991 56.9013 123.162 52.8868 120.781 49.3777L117.471 51.6237C119.588 54.7434 121.25 58.3639 122.442 62.506L126.286 61.4002ZM120.79 49.3913C118.407 45.8175 115.484 42.7986 112.026 40.3465L109.712 43.6095C112.765 45.7739 115.346 48.4368 117.462 51.6101L120.79 49.3913ZM112.06 40.3709C108.662 37.8542 104.781 35.9504 100.435 34.6468L99.2861 38.4782C103.227 39.6604 106.684 41.3669 109.679 43.5851L112.06 40.3709ZM100.443 34.6492C96.1425 33.3403 91.4149 32.6982 86.2777 32.6982V36.6982C91.0836 36.6982 95.4115 37.2989 99.2785 38.4758L100.443 34.6492ZM86.2777 32.6982C76.6379 32.6982 68.0807 35.0983 60.6785 39.9502L62.8712 43.2956C69.5552 38.9145 77.3333 36.6982 86.2777 36.6982V32.6982ZM60.672 39.9544C53.3228 44.8124 47.648 51.8517 43.611 60.9656L47.2683 62.5856C51.0437 54.0621 56.2591 47.6663 62.8777 43.2913L60.672 39.9544ZM43.613 60.961C39.5621 70.045 37.5803 81.0526 37.5803 93.9134H41.5803C41.5803 81.4426 43.5047 71.0251 47.2662 62.5901L43.613 60.961ZM37.5803 93.9134C37.5803 106.772 39.5319 117.83 43.5157 127.024L47.186 125.433C43.4757 116.871 41.5803 106.386 41.5803 93.9134H37.5803ZM43.5157 127.024C47.4937 136.204 53.1701 143.306 60.5799 148.225L62.7922 144.893C56.1159 140.46 50.9021 134.009 47.186 125.433L43.5157 127.024ZM60.5897 148.232C68.0021 153.09 76.7108 155.484 86.6328 155.484V151.484C77.3787 151.484 69.4562 149.261 62.7825 144.886L60.5897 148.232ZM86.6328 155.484C95.5637 155.484 103.314 153.904 109.811 150.656L108.022 147.078C102.208 149.985 95.1025 151.484 86.6328 151.484V155.484ZM109.817 150.653C116.358 147.351 121.394 142.677 124.856 136.633L121.385 134.645C118.337 139.965 113.903 144.11 108.015 147.082L109.817 150.653ZM124.848 136.647C128.371 130.609 130.092 123.53 130.092 115.487H126.092C126.092 122.949 124.5 129.306 121.393 134.631L124.848 136.647ZM127.8 117.465L135.613 118.619L136.197 114.662L128.385 113.508L127.8 117.465ZM135.905 114.641H89.0298V118.641H135.905V114.641ZM91.0298 116.641V87.6989H87.0298V116.641H91.0298ZM89.0298 89.6989H165.113V85.6989H89.0298V89.6989ZM163.113 87.6989V110.604H167.113V87.6989H163.113ZM163.113 110.604C163.113 126.299 159.801 139.665 153.268 150.784L156.717 152.81C163.677 140.965 167.113 126.869 167.113 110.604H163.113ZM153.27 150.78C146.714 161.88 137.697 170.439 126.186 176.482L128.045 180.024C140.209 173.638 149.777 164.559 156.714 152.814L153.27 150.78ZM126.193 176.478C114.68 182.465 101.451 185.486 86.4553 185.486V189.486C102 189.486 115.878 186.351 128.038 180.027L126.193 176.478ZM86.4553 185.486C69.7126 185.486 55.0958 181.797 42.5401 174.483L40.5266 177.939C53.7759 185.658 69.107 189.486 86.4553 189.486V185.486ZM42.546 174.486C29.984 167.11 20.1796 156.654 13.1238 143.063L9.57367 144.906C16.9592 159.132 27.2778 170.16 40.5207 177.936L42.546 174.486ZM13.1284 143.072C6.14039 129.442 2.60653 113.197 2.60653 94.2685H-1.39347C-1.39347 113.693 2.23414 130.591 9.56901 144.897L13.1284 143.072ZM2.60653 94.2685C2.60653 79.7221 4.70971 66.824 8.87477 55.5436L5.12239 54.1581C0.764718 65.9601 -1.39347 79.3404 -1.39347 94.2685H2.60653ZM8.87281 55.5489C13.1079 44.1779 19.0064 34.5952 26.5498 26.7639L23.6689 23.9889C15.7057 32.2561 9.53032 42.3231 5.12435 54.1528L8.87281 55.5489ZM26.5498 26.7639C34.1107 18.9145 42.9035 12.9474 52.9424 8.85105L51.4312 5.14751C40.8735 9.45554 31.6147 15.7399 23.6689 23.9889L26.5498 26.7639ZM52.9424 8.85105C62.9821 4.75438 73.8797 2.69602 85.6562 2.69602V-1.30398C73.4034 -1.30398 61.988 0.839832 51.4312 5.14751L52.9424 8.85105ZM85.6562 2.69602C95.757 2.69602 105.125 4.17587 113.777 7.11726L115.064 3.33017C105.96 0.234635 96.1521 -1.30398 85.6562 -1.30398V2.69602ZM113.788 7.12109C122.46 10.0117 130.122 14.1066 136.793 19.3972L139.278 16.2633C132.218 10.6638 124.137 6.35431 115.053 3.32635L113.788 7.12109ZM136.799 19.4024C143.528 24.6937 149.013 30.9836 153.264 38.2796L156.72 36.2658C152.212 28.5287 146.392 21.8569 139.272 16.2581L136.799 19.4024ZM153.268 38.2856C157.507 45.5046 160.236 53.4782 161.445 62.2268L165.407 61.6794C164.13 52.4356 161.236 43.9556 156.717 36.2599L153.268 38.2856ZM163.426 59.9531H124.364V63.9531H163.426V59.9531ZM306.293 3.18181V1.18181H304.293V3.18181H306.293ZM344.734 3.18181H346.734V1.18181H344.734V3.18181ZM335.235 156.058L333.548 154.984L333.543 154.991L335.235 156.058ZM308.867 179.318L309.743 181.116L309.751 181.113L308.867 179.318ZM229.766 179.318L228.883 181.113L228.89 181.116L229.766 179.318ZM203.399 156.058L201.707 157.125L201.707 157.125L203.399 156.058ZM193.988 3.18181V1.18181H191.988V3.18181H193.988ZM232.429 3.18181H234.429V1.18181H232.429V3.18181ZM236.957 136.438L235.212 137.416L235.216 137.423L235.22 137.43L236.957 136.438ZM249.919 149.134L248.95 150.884L248.95 150.884L249.919 149.134ZM288.803 149.134L287.835 147.383L287.827 147.388L288.803 149.134ZM301.676 136.438L299.94 135.446L299.936 135.453L299.932 135.46L301.676 136.438ZM306.293 5.18181H344.734V1.18181H306.293V5.18181ZM342.734 3.18181V121.257H346.734V3.18181H342.734ZM342.734 121.257C342.734 134.183 339.651 145.401 333.548 154.984L336.921 157.133C343.484 146.83 346.734 134.846 346.734 121.257H342.734ZM333.543 154.991C327.481 164.599 318.982 172.111 307.984 177.524L309.751 181.113C321.362 175.398 330.441 167.404 336.926 157.125L333.543 154.991ZM307.992 177.52C297.008 182.868 284.149 185.575 269.361 185.575V189.575C284.639 189.575 298.117 186.777 309.743 181.116L307.992 177.52ZM269.361 185.575C254.512 185.575 241.624 182.867 230.641 177.52L228.89 181.116C240.517 186.777 254.025 189.575 269.361 189.575V185.575ZM230.649 177.524C219.651 172.111 211.152 164.599 205.09 154.991L201.707 157.125C208.192 167.404 217.271 175.398 228.883 181.113L230.649 177.524ZM205.09 154.991C199.043 145.407 195.988 134.187 195.988 121.257H191.988C191.988 134.843 195.207 146.823 201.707 157.125L205.09 154.991ZM195.988 121.257V3.18181H191.988V121.257H195.988ZM193.988 5.18181H232.429V1.18181H193.988V5.18181ZM230.429 3.18181V117.972H234.429V3.18181H230.429ZM230.429 117.972C230.429 125.197 232.007 131.696 235.212 137.416L238.702 135.46C235.87 130.408 234.429 124.597 234.429 117.972H230.429ZM235.22 137.43C238.485 143.143 243.075 147.633 248.95 150.884L250.887 147.383C245.635 144.479 241.584 140.505 238.693 135.446L235.22 137.43ZM248.95 150.884C254.855 154.15 261.68 155.75 269.361 155.75V151.75C262.246 151.75 256.108 150.272 250.887 147.383L248.95 150.884ZM269.361 155.75C277.098 155.75 283.927 154.152 289.78 150.879L287.827 147.388C282.672 150.271 276.539 151.75 269.361 151.75V155.75ZM289.772 150.884C295.65 147.631 300.215 143.137 303.421 137.416L299.932 135.46C297.101 140.512 293.083 144.48 287.835 147.383L289.772 150.884ZM303.413 137.43C306.683 131.708 308.293 125.204 308.293 117.972H304.293C304.293 124.59 302.825 130.396 299.94 135.446L303.413 137.43ZM308.293 117.972V3.18181H304.293V117.972H308.293ZM376.361 185H374.361V187H376.361V185ZM376.361 3.18181V1.18181H374.361V3.18181H376.361ZM483.25 10.5504L482.347 12.3349L482.354 12.3382L482.36 12.3414L483.25 10.5504ZM505.534 31.2358L503.796 32.2256L503.8 32.2324L503.804 32.2392L505.534 31.2358ZM505.445 93.7358L507.158 94.7682L507.161 94.7631L505.445 93.7358ZM482.806 113.622L481.96 111.81L481.956 111.812L482.806 113.622ZM399.088 120.547H397.088V122.547H399.088V120.547ZM399.088 89.652V87.652H397.088V89.652H399.088ZM459.191 86.6335L459.957 88.481L459.957 88.481L459.191 86.6335ZM470.022 77.5781L468.31 76.5454L468.304 76.5547L468.299 76.5641L470.022 77.5781ZM470.022 47.3047L468.286 48.297L468.291 48.3063L468.297 48.3155L470.022 47.3047ZM459.103 37.8942L458.28 39.7172L458.293 39.7232L458.307 39.729L459.103 37.8942ZM414.802 34.6094V32.6094H412.802V34.6094H414.802ZM414.802 185V187H416.802V185H414.802ZM474.55 102.259L476.305 101.3L475.737 100.259H474.55V102.259ZM519.738 185V187H523.109L521.494 184.041L519.738 185ZM477.302 185L475.538 185.943L476.103 187H477.302V185ZM433.091 102.259V100.259H429.754L431.327 103.201L433.091 102.259ZM378.361 185V3.18181H374.361V185H378.361ZM376.361 5.18181H448.094V1.18181H376.361V5.18181ZM448.094 5.18181C461.592 5.18181 472.984 7.59643 482.347 12.3349L484.153 8.76594C474.103 3.6796 462.059 1.18181 448.094 1.18181V5.18181ZM482.36 12.3414C491.793 17.029 498.915 23.6553 503.796 32.2256L507.272 30.246C501.973 20.9423 494.239 13.7783 484.14 8.7594L482.36 12.3414ZM503.804 32.2392C508.748 40.7637 511.257 50.8516 511.257 62.5746H515.257C515.257 50.2682 512.618 39.4636 507.264 30.2324L503.804 32.2392ZM511.257 62.5746C511.257 74.3561 508.719 84.3733 503.729 92.7085L507.161 94.7631C512.588 85.6977 515.257 74.9408 515.257 62.5746H511.257ZM503.732 92.7033C498.746 100.976 491.515 107.347 481.96 111.81L483.653 115.434C493.866 110.664 501.728 103.777 507.158 94.7682L503.732 92.7033ZM481.956 111.812C472.462 116.273 460.873 118.547 447.118 118.547V122.547C461.298 122.547 473.501 120.204 483.657 115.432L481.956 111.812ZM447.118 118.547H399.088V122.547H447.118V118.547ZM401.088 120.547V89.652H397.088V120.547H401.088ZM399.088 91.652H440.903V87.652H399.088V91.652ZM440.903 91.652C448.408 91.652 454.785 90.6255 459.957 88.481L458.425 84.786C453.891 86.6662 448.076 87.652 440.903 87.652V91.652ZM459.957 88.481C465.159 86.3242 469.131 83.0376 471.746 78.5922L468.299 76.5641C466.179 80.1678 462.93 82.9183 458.425 84.786L459.957 88.481ZM471.735 78.6108C474.394 74.2003 475.662 68.8186 475.662 62.5746H471.662C471.662 68.286 470.504 72.9067 468.31 76.5454L471.735 78.6108ZM475.662 62.5746C475.662 56.2726 474.395 50.813 471.748 46.2939L468.297 48.3155C470.503 52.0824 471.662 56.8027 471.662 62.5746H475.662ZM471.759 46.3124C469.151 41.749 465.156 38.3399 459.898 36.0593L458.307 39.729C462.874 41.7098 466.159 44.5744 468.286 48.297L471.759 46.3124ZM459.925 36.0712C454.733 33.7285 448.304 32.6094 440.725 32.6094V36.6094C447.943 36.6094 453.765 37.6801 458.28 39.7172L459.925 36.0712ZM440.725 32.6094H414.802V36.6094H440.725V32.6094ZM412.802 34.6094V185H416.802V34.6094H412.802ZM414.802 183H376.361V187H414.802V183ZM472.795 103.217L517.983 185.959L521.494 184.041L476.305 101.3L472.795 103.217ZM519.738 183H477.302V187H519.738V183ZM479.066 184.057L434.855 101.316L431.327 103.201L475.538 185.943L479.066 184.057ZM433.091 104.259H474.55V100.259H433.091V104.259ZM538.471 185H536.471V187H538.471V185ZM538.471 162.184L536.842 161.023L536.471 161.544V162.184H538.471ZM629.202 34.8757L630.831 36.0365L633.083 32.8757H629.202V34.8757ZM538.293 34.8757H536.293V36.8757H538.293V34.8757ZM538.293 3.18181V1.18181H536.293V3.18181H538.293ZM677.498 3.18181H679.498V1.18181H677.498V3.18181ZM677.498 25.9979L679.126 27.1594L679.498 26.6381V25.9979H677.498ZM586.677 153.306L585.049 152.145L582.794 155.306H586.677V153.306ZM677.675 153.306H679.675V151.306H677.675V153.306ZM677.675 185V187H679.675V185H677.675ZM540.471 185V162.184H536.471V185H540.471ZM540.099 163.345L630.831 36.0365L627.573 33.7149L536.842 161.023L540.099 163.345ZM629.202 32.8757H538.293V36.8757H629.202V32.8757ZM540.293 34.8757V3.18181H536.293V34.8757H540.293ZM538.293 5.18181H677.498V1.18181H538.293V5.18181ZM675.498 3.18181V25.9979H679.498V3.18181H675.498ZM675.869 24.8364L585.049 152.145L588.305 154.468L679.126 27.1594L675.869 24.8364ZM586.677 155.306H677.675V151.306H586.677V155.306ZM675.675 153.306V185H679.675V153.306H675.675ZM677.675 183H538.471V187H677.675V183ZM738.51 185V187H739.963L740.412 185.619L738.51 185ZM697.317 185L695.427 184.347L694.511 187H697.317V185ZM760.084 3.18181V1.18181H758.658L758.193 2.52918L760.084 3.18181ZM809.622 3.18181L811.513 2.53L811.048 1.18181H809.622V3.18181ZM872.3 185V187H875.105L874.19 184.348L872.3 185ZM831.106 185L829.204 185.618L829.653 187H831.106V185ZM785.563 44.7301L787.465 44.1125L787.016 42.7301H785.563V44.7301ZM784.143 44.7301V42.7301H782.69L782.241 44.1114L784.143 44.7301ZM735.936 113.533V111.533H733.936V113.533H735.936ZM833.237 113.533H835.237V111.533H833.237V113.533ZM833.237 143.54V145.54H835.237V143.54H833.237ZM735.936 143.54H733.936V145.54H735.936V143.54ZM738.51 183H697.317V187H738.51V183ZM699.208 185.653L761.974 3.83445L758.193 2.52918L695.427 184.347L699.208 185.653ZM760.084 5.18181H809.622V1.18181H760.084V5.18181ZM807.731 3.83362L870.409 185.652L874.19 184.348L811.513 2.53L807.731 3.83362ZM872.3 183H831.106V187H872.3V183ZM833.009 184.382L787.465 44.1125L783.661 45.3477L829.204 185.618L833.009 184.382ZM785.563 42.7301H784.143V46.7301H785.563V42.7301ZM782.241 44.1114L736.609 184.381L740.412 185.619L786.044 45.3488L782.241 44.1114ZM735.936 115.533H833.237V111.533H735.936V115.533ZM831.237 113.533V143.54H835.237V113.533H831.237ZM833.237 141.54H735.936V145.54H833.237V141.54ZM737.936 143.54V113.533H733.936V143.54H737.936ZM865.042 34.8757H863.042V36.8757H865.042V34.8757ZM865.042 3.18181V1.18181H863.042V3.18181H865.042ZM1014.37 3.18181H1016.37V1.18181H1014.37V3.18181ZM1014.37 34.8757V36.8757H1016.37V34.8757H1014.37ZM958.703 34.8757V32.8757H956.703V34.8757H958.703ZM958.703 185V187H960.703V185H958.703ZM920.706 185H918.706V187H920.706V185ZM920.706 34.8757H922.706V32.8757H920.706V34.8757ZM867.042 34.8757V3.18181H863.042V34.8757H867.042ZM865.042 5.18181H1014.37V1.18181H865.042V5.18181ZM1012.37 3.18181V34.8757H1016.37V3.18181H1012.37ZM1014.37 32.8757H958.703V36.8757H1014.37V32.8757ZM956.703 34.8757V185H960.703V34.8757H956.703ZM958.703 183H920.706V187H958.703V183ZM922.706 185V34.8757H918.706V185H922.706ZM920.706 32.8757H865.042V36.8757H920.706V32.8757ZM1038.96 185H1036.96V187H1038.96V185ZM1038.96 3.18181V1.18181H1036.96V3.18181H1038.96ZM1145.85 10.5504L1144.94 12.3349L1144.95 12.3382L1144.96 12.3414L1145.85 10.5504ZM1168.13 31.2358L1166.39 32.2256L1166.4 32.2324L1166.4 32.2392L1168.13 31.2358ZM1168.04 93.7358L1169.76 94.7682L1169.76 94.7631L1168.04 93.7358ZM1145.4 113.622L1144.56 111.81L1144.55 111.812L1145.4 113.622ZM1061.69 120.547H1059.69V122.547H1061.69V120.547ZM1061.69 89.652V87.652H1059.69V89.652H1061.69ZM1121.79 86.6335L1122.56 88.481L1122.56 88.481L1121.79 86.6335ZM1132.62 77.5781L1130.91 76.5454L1130.9 76.5547L1130.9 76.5641L1132.62 77.5781ZM1132.62 47.3047L1130.88 48.297L1130.89 48.3063L1130.89 48.3155L1132.62 47.3047ZM1121.7 37.8942L1120.88 39.7172L1120.89 39.7232L1120.9 39.729L1121.7 37.8942ZM1077.4 34.6094V32.6094H1075.4V34.6094H1077.4ZM1077.4 185V187H1079.4V185H1077.4ZM1137.15 102.259L1138.9 101.3L1138.33 100.259H1137.15V102.259ZM1182.34 185V187H1185.71L1184.09 184.041L1182.34 185ZM1139.9 185L1138.14 185.943L1138.7 187H1139.9V185ZM1095.69 102.259V100.259H1092.35L1093.92 103.201L1095.69 102.259ZM1040.96 185V3.18181H1036.96V185H1040.96ZM1038.96 5.18181H1110.69V1.18181H1038.96V5.18181ZM1110.69 5.18181C1124.19 5.18181 1135.58 7.59643 1144.94 12.3349L1146.75 8.76594C1136.7 3.6796 1124.66 1.18181 1110.69 1.18181V5.18181ZM1144.96 12.3414C1154.39 17.029 1161.51 23.6553 1166.39 32.2256L1169.87 30.246C1164.57 20.9423 1156.84 13.7783 1146.74 8.7594L1144.96 12.3414ZM1166.4 32.2392C1171.35 40.7637 1173.86 50.8516 1173.86 62.5746H1177.86C1177.86 50.2682 1175.22 39.4636 1169.86 30.2324L1166.4 32.2392ZM1173.86 62.5746C1173.86 74.3561 1171.32 84.3733 1166.33 92.7085L1169.76 94.7631C1175.19 85.6977 1177.86 74.9408 1177.86 62.5746H1173.86ZM1166.33 92.7033C1161.34 100.976 1154.11 107.347 1144.56 111.81L1146.25 115.434C1156.46 110.664 1164.33 103.777 1169.76 94.7682L1166.33 92.7033ZM1144.55 111.812C1135.06 116.273 1123.47 118.547 1109.72 118.547V122.547C1123.9 122.547 1136.1 120.204 1146.25 115.432L1144.55 111.812ZM1109.72 118.547H1061.69V122.547H1109.72V118.547ZM1063.69 120.547V89.652H1059.69V120.547H1063.69ZM1061.69 91.652H1103.5V87.652H1061.69V91.652ZM1103.5 91.652C1111.01 91.652 1117.38 90.6255 1122.56 88.481L1121.02 84.786C1116.49 86.6662 1110.67 87.652 1103.5 87.652V91.652ZM1122.56 88.481C1127.76 86.3242 1131.73 83.0376 1134.34 78.5922L1130.9 76.5641C1128.78 80.1678 1125.53 82.9183 1121.02 84.786L1122.56 88.481ZM1134.33 78.6108C1136.99 74.2003 1138.26 68.8186 1138.26 62.5746H1134.26C1134.26 68.286 1133.1 72.9067 1130.91 76.5454L1134.33 78.6108ZM1138.26 62.5746C1138.26 56.2726 1136.99 50.813 1134.35 46.2939L1130.89 48.3155C1133.1 52.0824 1134.26 56.8027 1134.26 62.5746H1138.26ZM1134.36 46.3124C1131.75 41.749 1127.75 38.3399 1122.5 36.0593L1120.9 39.729C1125.47 41.7098 1128.76 44.5744 1130.88 48.297L1134.36 46.3124ZM1122.52 36.0712C1117.33 33.7285 1110.9 32.6094 1103.32 32.6094V36.6094C1110.54 36.6094 1116.36 37.6801 1120.88 39.7172L1122.52 36.0712ZM1103.32 32.6094H1077.4V36.6094H1103.32V32.6094ZM1075.4 34.6094V185H1079.4V34.6094H1075.4ZM1077.4 183H1038.96V187H1077.4V183ZM1135.39 103.217L1180.58 185.959L1184.09 184.041L1138.9 101.3L1135.39 103.217ZM1182.34 183H1139.9V187H1182.34V183ZM1141.66 184.057L1097.45 101.316L1093.92 103.201L1138.14 185.943L1141.66 184.057ZM1095.69 104.259H1137.15V100.259H1095.69V104.259ZM1203.02 185H1201.02V187H1203.02V185ZM1203.02 3.18181V1.18181H1201.02V3.18181H1203.02ZM1325.54 3.18181H1327.54V1.18181H1325.54V3.18181ZM1325.54 34.8757V36.8757H1327.54V34.8757H1325.54ZM1241.46 34.8757V32.8757H1239.46V34.8757H1241.46ZM1241.46 78.1996H1239.46V80.1996H1241.46V78.1996ZM1319.23 78.1996H1321.23V76.1996H1319.23V78.1996ZM1319.23 109.893V111.893H1321.23V109.893H1319.23ZM1241.46 109.893V107.893H1239.46V109.893H1241.46ZM1241.46 153.306H1239.46V155.306H1241.46V153.306ZM1325.89 153.306H1327.89V151.306H1325.89V153.306ZM1325.89 185V187H1327.89V185H1325.89ZM1205.02 185V3.18181H1201.02V185H1205.02ZM1203.02 5.18181H1325.54V1.18181H1203.02V5.18181ZM1323.54 3.18181V34.8757H1327.54V3.18181H1323.54ZM1325.54 32.8757H1241.46V36.8757H1325.54V32.8757ZM1239.46 34.8757V78.1996H1243.46V34.8757H1239.46ZM1241.46 80.1996H1319.23V76.1996H1241.46V80.1996ZM1317.23 78.1996V109.893H1321.23V78.1996H1317.23ZM1319.23 107.893H1241.46V111.893H1319.23V107.893ZM1239.46 109.893V153.306H1243.46V109.893H1239.46ZM1241.46 155.306H1325.89V151.306H1241.46V155.306ZM1323.89 153.306V185H1327.89V153.306H1323.89ZM1325.89 183H1203.02V187H1325.89V183ZM1356.1 185H1354.1V187H1356.1V185ZM1356.1 3.18181V1.18181H1354.1V3.18181H1356.1ZM1394.54 3.18181H1396.54V1.18181H1394.54V3.18181ZM1394.54 83.3487H1392.54V85.3487H1394.54V83.3487ZM1396.94 83.3487V85.3487H1397.88L1398.48 84.6133L1396.94 83.3487ZM1462.37 3.18181V1.18181H1461.42L1460.82 1.91721L1462.37 3.18181ZM1508.44 3.18181L1509.98 4.45805L1512.7 1.18181H1508.44V3.18181ZM1440.97 84.5916L1439.43 83.3154L1438.47 84.4729L1439.32 85.7162L1440.97 84.5916ZM1509.24 185V187H1513.02L1510.89 183.875L1509.24 185ZM1463.25 185L1461.59 186.109L1462.18 187H1463.25V185ZM1413.45 110.249L1415.11 109.14L1413.61 106.89L1411.9 108.981L1413.45 110.249ZM1394.54 133.331L1392.99 132.064L1392.54 132.616V133.331H1394.54ZM1394.54 185V187H1396.54V185H1394.54ZM1358.1 185V3.18181H1354.1V185H1358.1ZM1356.1 5.18181H1394.54V1.18181H1356.1V5.18181ZM1392.54 3.18181V83.3487H1396.54V3.18181H1392.54ZM1394.54 85.3487H1396.94V81.3487H1394.54V85.3487ZM1398.48 84.6133L1463.91 4.44642L1460.82 1.91721L1395.39 82.0841L1398.48 84.6133ZM1462.37 5.18181H1508.44V1.18181H1462.37V5.18181ZM1506.9 1.90558L1439.43 83.3154L1442.51 85.8679L1509.98 4.45805L1506.9 1.90558ZM1439.32 85.7162L1507.59 186.125L1510.89 183.875L1442.62 83.4671L1439.32 85.7162ZM1509.24 183H1463.25V187H1509.24V183ZM1464.92 183.891L1415.11 109.14L1411.78 111.358L1461.59 186.109L1464.92 183.891ZM1411.9 108.981L1392.99 132.064L1396.09 134.598L1415 111.516L1411.9 108.981ZM1392.54 133.331V185H1396.54V133.331H1392.54ZM1394.54 183H1356.1V187H1394.54V183Z" fill="white"/>
</svg>
