<svg width="45" height="60" viewBox="0 0 45 60" fill="none" xmlns="http://www.w3.org/2000/svg">
<g clip-path="url(#clip0_254_23)">
<path d="M42.8451 10.3296C44.1244 13.5014 44.7624 17.435 44.7624 22.1378V60H27.3684V23.2946C27.3684 22.82 27.3563 22.3768 27.3315 21.9638L42.8451 10.3296V10.3296Z" fill="#332C2B" fill-opacity="0.501961"/>
<path d="M24.4698 30.5716V46.033H19.4624V60.0008H2.06836V22.7385C2.06836 15.5494 4.03049 9.95688 7.9688 5.97438C11.9071 1.99189 17.442 0.000976562 24.5722 0.000976562C31.4534 0.000976562 36.5344 1.80177 39.8281 5.41808C40.6897 6.364 41.4374 7.44247 42.0727 8.65482L27.0538 19.9175C26.9246 19.3812 26.7559 18.9461 26.5484 18.6094C25.9921 17.7458 25.0114 17.306 23.5908 17.306C20.8381 17.306 19.4617 19.2969 19.4617 23.2941V30.5709H24.4691L24.4698 30.5716Z" fill="#332C2B" fill-opacity="0.501961"/>
<path d="M40.7768 10.3296C42.0561 13.5014 42.694 17.435 42.694 22.1378V60H25.3V23.2946C25.3 22.82 25.288 22.3768 25.2632 21.9638L40.7768 10.3296V10.3296Z" fill="#3B3B3C"/>
<path d="M22.4014 30.5716V46.033H17.394V60.0008H0V22.7385C0 15.5494 1.96213 9.95688 5.90044 5.97438C9.83875 1.99189 15.3737 0.000976562 22.5039 0.000976562C29.385 0.000976562 34.4661 1.80177 37.7597 5.41808C38.6213 6.364 39.3691 7.44247 40.0044 8.65482L24.9855 19.9175C24.8563 19.3812 24.6876 18.9461 24.4801 18.6094C23.9238 17.7458 22.943 17.306 21.5225 17.306C18.7697 17.306 17.3934 19.2969 17.3934 23.2941V30.5709H22.4008L22.4014 30.5716Z" fill="#3B3B3C"/>
</g>
<defs>
<clipPath id="clip0_254_23">
<rect width="44.7627" height="60" fill="white"/>
</clipPath>
</defs>
</svg>
