<svg width="1369" height="374" viewBox="0 0 1369 374" fill="none" xmlns="http://www.w3.org/2000/svg">
<path d="M304.76 5.36363H306.76V3.36363H304.76V5.36363ZM304.76 369V371H306.76V369H304.76ZM238.354 369L236.708 370.137L237.305 371H238.354V369ZM80.1506 140.129L81.7958 138.992L81.1994 138.129H80.1506V140.129ZM77.4872 140.129V138.129H75.4872V140.129H77.4872ZM77.4872 369V371H79.4872V369H77.4872ZM0.605113 369H-1.39489V371H0.605113V369ZM0.605113 5.36363V3.36363H-1.39489V5.36363H0.605113ZM68.0767 5.36363L69.7257 4.23187L69.1298 3.36363H68.0767V5.36363ZM225.037 234.057L223.388 235.189L223.984 236.057H225.037V234.057ZM228.233 234.057V236.057H230.233V234.057H228.233ZM228.233 5.36363V3.36363H226.233V5.36363H228.233ZM302.76 5.36363V369H306.76V5.36363H302.76ZM304.76 367H238.354V371H304.76V367ZM239.999 367.863L81.7958 138.992L78.5054 141.266L236.708 370.137L239.999 367.863ZM80.1506 138.129H77.4872V142.129H80.1506V138.129ZM75.4872 140.129V369H79.4872V140.129H75.4872ZM77.4872 367H0.605113V371H77.4872V367ZM2.60511 369V5.36363H-1.39489V369H2.60511ZM0.605113 7.36363H68.0767V3.36363H0.605113V7.36363ZM66.4277 6.49538L223.388 235.189L226.686 232.925L69.7257 4.23187L66.4277 6.49538ZM225.037 236.057H228.233V232.057H225.037V236.057ZM230.233 234.057V5.36363H226.233V234.057H230.233ZM228.233 7.36363H304.76V3.36363H228.233V7.36363ZM679.893 288.389L678.134 287.438L678.13 287.444L679.893 288.389ZM618.814 352.132L619.8 353.872L619.802 353.871L618.814 352.132ZM445.163 351.955L446.155 350.218L445.163 351.955ZM384.261 288.212L382.498 289.157L382.498 289.157L384.261 288.212ZM384.261 85.9744L386.024 86.9195L386.024 86.9195L384.261 85.9744ZM445.163 22.4091L446.149 24.149L446.155 24.1456L445.163 22.4091ZM618.814 22.4091L617.821 24.1456L617.831 24.151L618.814 22.4091ZM679.893 85.9744L678.13 86.9195L678.134 86.9253L679.893 85.9744ZM612.954 122.196L611.117 122.985L611.121 122.996L612.954 122.196ZM580.816 82.0682L579.717 83.7388L579.717 83.7388L580.816 82.0682ZM483.515 82.0682L484.615 83.7388L484.615 83.7388L483.515 82.0682ZM451.2 122.196L449.367 121.396L449.362 121.407L451.2 122.196ZM451.2 252.168L449.362 252.957L449.367 252.967L451.2 252.168ZM483.515 292.295L484.615 290.625L484.615 290.625L483.515 292.295ZM580.816 292.295L579.717 290.625L579.717 290.625L580.816 292.295ZM612.954 252.168L611.121 251.368L611.117 251.378L612.954 252.168ZM700.443 187.182C700.443 226.587 692.974 259.978 678.134 287.438L681.653 289.34C696.879 261.166 704.443 227.085 704.443 187.182H700.443ZM678.13 287.444C663.382 314.951 643.281 335.914 617.825 350.394L619.802 353.871C645.956 338.994 666.575 317.462 681.656 289.334L678.13 287.444ZM617.827 350.392C592.467 364.767 563.93 371.972 532.166 371.972V375.972C564.559 375.972 593.787 368.617 619.8 353.872L617.827 350.392ZM532.166 371.972C500.166 371.972 471.512 364.708 446.155 350.218L444.171 353.691C470.187 368.557 499.535 375.972 532.166 375.972V371.972ZM446.155 350.218C420.817 335.739 400.773 314.776 386.024 287.267L382.498 289.157C397.578 317.282 418.136 338.814 444.171 353.691L446.155 350.218ZM386.024 287.267C371.299 259.804 363.889 226.47 363.889 187.182H359.889C359.889 226.966 367.393 260.984 382.498 289.157L386.024 287.267ZM363.889 187.182C363.889 147.774 371.3 114.381 386.024 86.9195L382.498 85.0294C367.393 113.202 359.889 147.281 359.889 187.182H363.889ZM386.024 86.9195C400.773 59.4112 420.814 38.5094 446.149 24.149L444.177 20.6692C418.139 35.4281 397.579 56.9031 382.498 85.0294L386.024 86.9195ZM446.155 24.1456C471.512 9.6559 500.166 2.39203 532.166 2.39203V-1.60797C499.535 -1.60797 470.187 5.8062 444.171 20.6726L446.155 24.1456ZM532.166 2.39203C563.927 2.39203 592.462 9.65463 617.821 24.1456L619.806 20.6726C593.792 5.80748 564.562 -1.60797 532.166 -1.60797V2.39203ZM617.831 24.151C643.284 38.512 663.383 59.4136 678.13 86.9195L681.656 85.0294C666.574 56.9008 645.953 35.4255 619.796 20.6672L617.831 24.151ZM678.134 86.9253C692.974 114.385 700.443 147.777 700.443 187.182H704.443C704.443 147.278 696.879 113.198 681.653 85.0236L678.134 86.9253ZM626.495 187.182C626.495 161.307 622.622 139.355 614.787 121.396L611.121 122.996C618.675 140.311 622.495 161.683 622.495 187.182H626.495ZM614.792 121.407C607.087 103.468 596.141 89.7597 581.916 80.3975L579.717 83.7388C593.19 92.6059 603.67 105.65 611.117 122.985L614.792 121.407ZM581.916 80.3975C567.701 71.0427 551.092 66.3963 532.166 66.3963V70.3963C550.408 70.3963 566.233 74.8645 579.717 83.7388L581.916 80.3975ZM532.166 66.3963C513.24 66.3963 496.63 71.0427 482.416 80.3975L484.615 83.7388C498.099 74.8645 513.923 70.3963 532.166 70.3963V66.3963ZM482.416 80.3975C468.193 89.7577 457.19 103.462 449.367 121.396L453.033 122.996C460.598 105.655 471.139 92.6078 484.615 83.7388L482.416 80.3975ZM449.362 121.407C441.65 139.362 437.836 161.311 437.836 187.182H441.836C441.836 161.68 445.599 140.304 453.038 122.985L449.362 121.407ZM437.836 187.182C437.836 213.053 441.65 235.001 449.362 252.957L453.038 251.378C445.599 234.059 441.836 212.684 441.836 187.182H437.836ZM449.367 252.967C457.19 270.902 468.193 284.606 482.416 293.966L484.615 290.625C471.139 281.756 460.598 268.708 453.033 251.368L449.367 252.967ZM482.416 293.966C496.63 303.321 513.24 307.967 532.166 307.967V303.967C513.923 303.967 498.099 299.499 484.615 290.625L482.416 293.966ZM532.166 307.967C551.092 307.967 567.701 303.321 581.916 293.966L579.717 290.625C566.233 299.499 550.408 303.967 532.166 303.967V307.967ZM581.916 293.966C596.141 284.604 607.087 270.896 614.792 252.957L611.117 251.378C603.67 268.714 593.19 281.758 579.717 290.625L581.916 293.966ZM614.787 252.967C622.622 235.008 626.495 213.056 626.495 187.182H622.495C622.495 212.68 618.675 234.052 611.121 251.368L614.787 252.967ZM759.394 369H757.394V371H759.394V369ZM759.394 5.36363V3.36363H757.394V5.36363H759.394ZM983.826 27.2031L982.86 28.9544L982.866 28.9577L983.826 27.2031ZM1044.73 89.5256L1042.96 90.4539L1042.96 90.4599L1044.73 89.5256ZM1044.73 284.483L1042.96 283.552L1042.95 283.558L1044.73 284.483ZM983.471 347.161L982.512 345.406L982.508 345.407L983.471 347.161ZM836.276 303.126H834.276V305.126H836.276V303.126ZM942.455 291.053L943.377 292.828L943.382 292.825L942.455 291.053ZM977.612 253.233L975.796 252.394L975.793 252.4L977.612 253.233ZM977.612 120.953L975.793 121.786L975.798 121.797L977.612 120.953ZM942.633 83.3111L943.554 81.536L943.554 81.536L942.633 83.3111ZM836.276 71.2372V69.2372H834.276V71.2372H836.276ZM888.3 367H759.394V371H888.3V367ZM761.394 369V5.36363H757.394V369H761.394ZM759.394 7.36363H889.366V3.36363H759.394V7.36363ZM889.366 7.36363C925.676 7.36363 956.816 14.5893 982.86 28.9544L984.792 25.4519C958.042 10.6976 926.209 3.36363 889.366 3.36363V7.36363ZM982.866 28.9577C1008.91 43.2062 1028.93 63.6899 1042.96 90.4539L1046.5 88.5973C1032.12 61.1471 1011.54 40.0826 984.786 25.4485L982.866 28.9577ZM1042.96 90.4599C1057.1 117.22 1064.21 149.318 1064.21 186.827H1068.21C1068.21 148.815 1061 116.045 1046.5 88.5912L1042.96 90.4599ZM1064.21 186.827C1064.21 224.455 1057.1 256.673 1042.96 283.552L1046.5 285.414C1061 257.843 1068.21 224.956 1068.21 186.827H1064.21ZM1042.95 283.558C1028.93 310.437 1008.79 331.038 982.512 345.406L984.43 348.915C1011.42 334.163 1032.12 312.98 1046.5 285.408L1042.95 283.558ZM982.508 345.407C956.347 359.773 924.969 367 888.3 367V371C925.495 371 957.565 363.667 984.434 348.914L982.508 345.407ZM836.276 305.126H885.104V301.126H836.276V305.126ZM885.104 305.126C908.059 305.126 927.513 301.062 943.377 292.828L941.534 289.277C926.385 297.141 907.604 301.126 885.104 301.126V305.126ZM943.382 292.825C959.426 284.438 971.445 271.488 979.43 254.066L975.793 252.4C968.153 269.069 956.735 281.332 941.529 289.28L943.382 292.825ZM979.427 254.072C987.52 236.557 991.508 214.107 991.508 186.827H987.508C987.508 213.76 983.564 235.582 975.796 252.394L979.427 254.072ZM991.508 186.827C991.508 159.781 987.52 137.507 979.425 120.109L975.798 121.797C983.565 138.49 987.508 160.132 987.508 186.827H991.508ZM979.43 120.12C971.446 102.701 959.486 89.806 943.554 81.536L941.711 85.0862C956.793 92.9146 968.152 105.114 975.793 121.786L979.43 120.12ZM943.554 81.536C927.69 73.3013 908.237 69.2372 885.282 69.2372V73.2372C907.782 73.2372 926.562 77.2224 941.711 85.0862L943.554 81.536ZM885.282 69.2372H836.276V73.2372H885.282V69.2372ZM834.276 71.2372V303.126H838.276V71.2372H834.276ZM1123.16 369H1121.16V371H1123.16V369ZM1123.16 5.36363V3.36363H1121.16V5.36363H1123.16ZM1368.19 5.36363H1370.19V3.36363H1368.19V5.36363ZM1368.19 68.7514V70.7514H1370.19V68.7514H1368.19ZM1200.05 68.7514V66.7514H1198.05V68.7514H1200.05ZM1200.05 155.399H1198.05V157.399H1200.05V155.399ZM1355.59 155.399H1357.59V153.399H1355.59V155.399ZM1355.59 218.787V220.787H1357.59V218.787H1355.59ZM1200.05 218.787V216.787H1198.05V218.787H1200.05ZM1200.05 305.612H1198.05V307.612H1200.05V305.612ZM1368.9 305.612H1370.9V303.612H1368.9V305.612ZM1368.9 369V371H1370.9V369H1368.9ZM1125.16 369V5.36363H1121.16V369H1125.16ZM1123.16 7.36363H1368.19V3.36363H1123.16V7.36363ZM1366.19 5.36363V68.7514H1370.19V5.36363H1366.19ZM1368.19 66.7514H1200.05V70.7514H1368.19V66.7514ZM1198.05 68.7514V155.399H1202.05V68.7514H1198.05ZM1200.05 157.399H1355.59V153.399H1200.05V157.399ZM1353.59 155.399V218.787H1357.59V155.399H1353.59ZM1355.59 216.787H1200.05V220.787H1355.59V216.787ZM1198.05 218.787V305.612H1202.05V218.787H1198.05ZM1200.05 307.612H1368.9V303.612H1200.05V307.612ZM1366.9 305.612V369H1370.9V305.612H1366.9ZM1368.9 367H1123.16V371H1368.9V367Z" fill="white"/>
</svg>
