<svg width="461" height="547" viewBox="0 0 461 547" fill="none" xmlns="http://www.w3.org/2000/svg">
<circle r="87.5" transform="matrix(1 0 0 -1 367.5 168.5)" fill="#EF4E4E"/>
<rect x="2.5" y="-2.5" width="329" height="33" transform="matrix(1 0 0 -1 173 157)" stroke="#104288" stroke-width="5"/>
<path d="M15 24.0432C15 100.235 76.7654 162 152.957 162C228.644 162 290 100.644 290 24.9568V-3.05176e-05H15V24.0432Z" fill="#104288"/>
<rect width="82" height="38" transform="matrix(1 0 0 -1 297 162)" fill="#104288"/>
<rect width="107" height="26" transform="matrix(1 0 0 -1 380 188)" fill="#104288"/>
<circle r="4.17621" transform="matrix(0 1 1 0 25.8238 177.555)" fill="#EF4E4E"/>
<circle r="4.17621" transform="matrix(0 1 1 0 25.8238 158.762)" fill="#EF4E4E"/>
<circle r="4.17621" transform="matrix(0 1 1 0 25.8238 139.969)" fill="#EF4E4E"/>
<circle r="4.17621" transform="matrix(0 1 1 0 25.8238 121.176)" fill="#EF4E4E"/>
<circle r="4.17621" transform="matrix(0 1 1 0 4.94275 177.555)" fill="#EF4E4E"/>
<circle r="4.17621" transform="matrix(0 1 1 0 4.94275 158.762)" fill="#EF4E4E"/>
<circle r="4.17621" transform="matrix(0 1 1 0 4.94275 139.969)" fill="#EF4E4E"/>
<circle r="4.17621" transform="matrix(0 1 1 0 4.94275 121.176)" fill="#EF4E4E"/>
<path d="M399.065 539.965V546.751L378.184 535.789V529.524L399.065 539.965Z" fill="#104288"/>
<path d="M399.065 519.084V525.87L378.184 514.908V508.643L399.065 519.084Z" fill="#104288"/>
<path d="M399.065 498.203V504.989L378.184 494.026V487.762L399.065 498.203Z" fill="#104288"/>
<path d="M399.065 477.322V484.108L378.184 473.145V466.881L399.065 477.322Z" fill="#104288"/>
<path d="M399.065 456.441V463.227L378.184 452.264V446L399.065 456.441Z" fill="#104288"/>
<circle r="53" transform="matrix(1 0 0 -1 222 342)" fill="#104288"/>
</svg>
