<svg width="240" height="448" viewBox="0 0 240 448" fill="none" xmlns="http://www.w3.org/2000/svg">
<circle r="180.5" transform="matrix(-1 0 0 1 9.5 224.5)" fill="#104288"/>
<circle r="5.71429" transform="matrix(0 1 1 0 133.286 336.857)" fill="#EF4E4E"/>
<circle r="5.71429" transform="matrix(0 1 1 0 133.286 311.143)" fill="#EF4E4E"/>
<circle r="5.71429" transform="matrix(0 1 1 0 133.286 285.429)" fill="#EF4E4E"/>
<circle r="5.71429" transform="matrix(0 1 1 0 133.286 259.714)" fill="#EF4E4E"/>
<circle r="5.71429" transform="matrix(0 1 1 0 104.714 336.857)" fill="#EF4E4E"/>
<circle r="5.71429" transform="matrix(0 1 1 0 104.714 311.143)" fill="#EF4E4E"/>
<circle r="5.71429" transform="matrix(0 1 1 0 104.714 285.429)" fill="#EF4E4E"/>
<circle r="5.71429" transform="matrix(0 1 1 0 104.714 259.714)" fill="#EF4E4E"/>
<circle r="5.71429" transform="matrix(0 1 1 0 133.286 441.856)" fill="#EF4E4E"/>
<circle r="5.71429" transform="matrix(0 1 1 0 133.286 416.141)" fill="#EF4E4E"/>
<circle r="5.71429" transform="matrix(0 1 1 0 133.286 390.427)" fill="#EF4E4E"/>
<circle r="5.71429" transform="matrix(0 1 1 0 133.286 364.713)" fill="#EF4E4E"/>
<circle r="5.71429" transform="matrix(0 1 1 0 104.714 441.856)" fill="#EF4E4E"/>
<circle r="5.71429" transform="matrix(0 1 1 0 104.714 416.141)" fill="#EF4E4E"/>
<circle r="5.71429" transform="matrix(0 1 1 0 104.714 390.427)" fill="#EF4E4E"/>
<circle r="5.71429" transform="matrix(0 1 1 0 104.714 364.713)" fill="#EF4E4E"/>
<path d="M233.214 4.57764e-05H240L229.037 20.8811H222.773L233.214 4.57764e-05Z" fill="#104288"/>
<path d="M212.333 4.57764e-05H219.119L208.156 20.8811H201.892L212.333 4.57764e-05Z" fill="#104288"/>
<path d="M191.452 4.57764e-05H198.238L187.275 20.8811H181.011L191.452 4.57764e-05Z" fill="#104288"/>
<path d="M170.57 4.57764e-05H177.357L166.394 20.8811H160.13L170.57 4.57764e-05Z" fill="#104288"/>
<path d="M149.689 4.57764e-05H156.476L145.513 20.8811H139.249L149.689 4.57764e-05Z" fill="#104288"/>
</svg>
