<svg width="455" height="440" viewBox="0 0 455 440" fill="none" xmlns="http://www.w3.org/2000/svg">
<circle r="97.2804" transform="matrix(-1 0 0 1 233.446 252.389)" fill="#EF4E4E"/>
<rect x="-2.5" y="2.5" width="461.946" height="37.2475" transform="matrix(-1 0 0 1 444.946 259.892)" stroke="#104288" stroke-width="5"/>
<path d="M449.946 259.892H434.838C343.711 259.892 269.838 333.765 269.838 424.892V440H449.946V259.892Z" fill="#104288"/>
<rect x="90" y="260" width="111" height="42" fill="#104288"/>
<rect width="74" height="12" transform="matrix(-1 0 0 1 275 248)" fill="#104288"/>
<path d="M56.5322 381H48.9873L61.1752 404.215H68.1397L56.5322 381Z" fill="#104288"/>
<path d="M79.7474 381H72.2025L84.3904 404.215H91.3549L79.7474 381Z" fill="#104288"/>
<path d="M102.962 381H95.4176L107.606 404.215H114.57L102.962 381Z" fill="#104288"/>
<path d="M126.177 381H118.632L130.82 404.215H137.785L126.177 381Z" fill="#104288"/>
<path d="M149.392 381H141.848L154.036 404.215H161L149.392 381Z" fill="#104288"/>
<circle r="58.9242" transform="matrix(-1 0 0 1 395.21 59.4957)" fill="#104288"/>
</svg>
